<?xml version="1.0" encoding="UTF-8"?>
<!DOCTYPE svg PUBLIC "-//W3C//DTD SVG 1.1//EN" "http://www.w3.org/Graphics/SVG/1.1/DTD/svg11.dtd">
<svg version="1.2" xmlns="http://www.w3.org/2000/svg" xmlns:xlink="http://www.w3.org/1999/xlink" x="0" y="0" width="830" height="777" viewBox="0 0 830 777">
<style type="text/css"><![CDATA[
text { font:12px Dialog; }
]]></style>
<rect x="-1585" y="-538" width="3308" height="1852" style="fill:rgb(255,255,255);stroke:none" />
<clipPath id="clip1"><path d="M14,14 L416,14 L416,763 L14,763 L14,14 Z" /></clipPath>
<path d="M123,388 L133,388" style="fill:none;stroke:rgb(128,128,128)" clip-path="url(#clip1)" />
<clipPath id="clip2"><path d="M14,14 L416,14 L416,763 L14,763 L14,14 Z" /></clipPath>
<path d="M133,388 C137.8888855,160.6666718 145.222229,47 155,47" style="fill:none;stroke:rgb(128,128,128)" clip-path="url(#clip2)" />
<clipPath id="clip3"><path d="M14,14 L416,14 L416,763 L14,763 L14,14 Z" /></clipPath>
<path d="M133,388 C137.8888855,189.3333282 145.222229,90 155,90" style="fill:none;stroke:rgb(128,128,128)" clip-path="url(#clip3)" />
<clipPath id="clip4"><path d="M14,14 L416,14 L416,763 L14,763 L14,14 Z" /></clipPath>
<path d="M133,388 C137.8888855,218 145.222229,133 155,133" style="fill:none;stroke:rgb(128,128,128)" clip-path="url(#clip4)" />
<clipPath id="clip5"><path d="M14,14 L416,14 L416,763 L14,763 L14,14 Z" /></clipPath>
<path d="M133,388 C137.8888855,246.6666718 145.222229,176 155,176" style="fill:none;stroke:rgb(128,128,128)" clip-path="url(#clip5)" />
<clipPath id="clip6"><path d="M14,14 L416,14 L416,763 L14,763 L14,14 Z" /></clipPath>
<path d="M133,388 C137.8888855,275.3333435 145.222229,219 155,219" style="fill:none;stroke:rgb(128,128,128)" clip-path="url(#clip6)" />
<clipPath id="clip7"><path d="M14,14 L416,14 L416,763 L14,763 L14,14 Z" /></clipPath>
<path d="M133,388 C137.8888855,304 145.222229,262 155,262" style="fill:none;stroke:rgb(128,128,128)" clip-path="url(#clip7)" />
<clipPath id="clip8"><path d="M14,14 L416,14 L416,763 L14,763 L14,14 Z" /></clipPath>
<path d="M133,388 C137.8888855,354.6666565 145.222229,338 155,338" style="fill:none;stroke:rgb(128,128,128)" clip-path="url(#clip8)" />
<clipPath id="clip9"><path d="M14,14 L416,14 L416,763 L14,763 L14,14 Z" /></clipPath>
<path d="M133,388 C137.8888855,427.3333435 145.222229,447 155,447" style="fill:none;stroke:rgb(128,128,128)" clip-path="url(#clip9)" />
<clipPath id="clip10"><path d="M14,14 L416,14 L416,763 L14,763 L14,14 Z" /></clipPath>
<path d="M133,388 C137.8888855,500 145.222229,556 155,556" style="fill:none;stroke:rgb(128,128,128)" clip-path="url(#clip10)" />
<clipPath id="clip11"><path d="M14,14 L416,14 L416,763 L14,763 L14,14 Z" /></clipPath>
<path d="M133,388 C137.8888855,550.666687 145.222229,632 155,632" style="fill:none;stroke:rgb(128,128,128)" clip-path="url(#clip11)" />
<clipPath id="clip12"><path d="M14,14 L416,14 L416,763 L14,763 L14,14 Z" /></clipPath>
<path d="M133,388 C137.8888855,579.333313 145.222229,675 155,675" style="fill:none;stroke:rgb(128,128,128)" clip-path="url(#clip12)" />
<clipPath id="clip13"><path d="M14,14 L416,14 L416,763 L14,763 L14,14 Z" /></clipPath>
<path d="M133,388 C137.8888855,608 145.222229,718 155,718" style="fill:none;stroke:rgb(128,128,128)" clip-path="url(#clip13)" />
<clipPath id="clip14"><path d="M14,14 L416,14 L416,763 L14,763 L14,14 Z" /></clipPath>
<path d="M133,388 C137.8888855,636.666687 145.222229,761 155,761" style="fill:none;stroke:rgb(128,128,128)" clip-path="url(#clip14)" />
<clipPath id="clip15"><path d="M14,356 L124,356 L124,420 L14,420 L14,356 Z" /></clipPath>
<path d="M121,387.5 C121,371.2076111 97.4949493,358 68.5,358 C39.5050507,358 16,371.2076111 16,387.5 C16,403.7923889 39.5050507,417 68.5,417 C97.4949493,417 121,403.7923889 121,387.5 Z M121,387.5" style="fill:none;stroke:rgb(128,128,128)" clip-path="url(#clip15)" />
<text x="41" y="395" style="font:18px Dialog">{#Folder}</text>
<clipPath id="clip16"><path d="M153,14 L327,14 L327,49 L153,49 L153,14 Z" /></clipPath>
<path d="M189,47 L202,47" style="fill:none;stroke:rgb(128,128,128)" clip-path="url(#clip16)" />
<clipPath id="clip17"><path d="M153,14 L327,14 L327,49 L153,49 L153,14 Z" /></clipPath>
<path d="M202,47 C204,42.3333435 207,40 211,40" style="fill:none;stroke:rgb(128,128,128)" clip-path="url(#clip17)" />
<clipPath id="clip18"><path d="M153,14 L192,14 L192,49 L153,49 L153,14 Z" /></clipPath>
<path d="M155,47 L189,47" style="fill:none;stroke:rgb(128,128,128)" clip-path="url(#clip18)" />
<text x="162" y="36" style="font:13px Dialog">_m</text>
<clipPath id="clip19"><path d="M190,25 L203,25 L203,38 L190,38 L190,25 Z" /></clipPath>
<path d="M200.5,31 C200.5,28.5147095 198.4852753,26.5 196,26.5 C193.5147095,26.5 191.5,28.5147095 191.5,31 C191.5,33.4852905 193.5147095,35.5 196,35.5 C198.4852753,35.5 200.5,33.4852905 200.5,31 Z M200.5,31" style="fill:rgb(210,230,255);stroke:none" clip-path="url(#clip19)" />
<clipPath id="clip20"><path d="M190,25 L203,25 L203,38 L190,38 L190,25 Z" /></clipPath>
<path d="M200.5,31 C200.5,28.5147095 198.4852753,26.5 196,26.5 C193.5147095,26.5 191.5,28.5147095 191.5,31 C191.5,33.4852905 193.5147095,35.5 196,35.5 C198.4852753,35.5 200.5,33.4852905 200.5,31 Z M200.5,31" style="fill:none;stroke:rgb(180,200,240)" clip-path="url(#clip20)" />
<clipPath id="clip21"><path d="M190,25 L203,25 L203,38 L190,38 L190,25 Z" /></clipPath>
<path d="M194,31 L198,31" style="fill:none;stroke:rgb(150,160,200)" clip-path="url(#clip21)" />
<clipPath id="clip22"><path d="M209,21 L327,21 L327,42 L209,42 L209,21 Z" /></clipPath>
<path d="M211,40 L324,40" style="fill:none;stroke:rgb(128,128,128)" clip-path="url(#clip22)" />
<text x="216" y="35" style="font:10px Dialog">{#Default Model Folder}</text>
<clipPath id="clip23"><path d="M153,57 L328,57 L328,92 L153,92 L153,57 Z" /></clipPath>
<path d="M184,90 L197,90" style="fill:none;stroke:rgb(128,128,128)" clip-path="url(#clip23)" />
<clipPath id="clip24"><path d="M153,57 L328,57 L328,92 L153,92 L153,57 Z" /></clipPath>
<path d="M197,90 C199,85.3333435 202,83 206,83" style="fill:none;stroke:rgb(128,128,128)" clip-path="url(#clip24)" />
<clipPath id="clip25"><path d="M153,57 L187,57 L187,92 L153,92 L153,57 Z" /></clipPath>
<path d="M155,90 L184,90" style="fill:none;stroke:rgb(128,128,128)" clip-path="url(#clip25)" />
<text x="162" y="79" style="font:13px Dialog">_s</text>
<clipPath id="clip26"><path d="M185,68 L198,68 L198,81 L185,81 L185,68 Z" /></clipPath>
<path d="M195.5,74 C195.5,71.5147095 193.4852905,69.5 191,69.5 C188.5147095,69.5 186.5,71.5147095 186.5,74 C186.5,76.4852905 188.5147095,78.5 191,78.5 C193.4852905,78.5 195.5,76.4852905 195.5,74 Z M195.5,74" style="fill:rgb(210,230,255);stroke:none" clip-path="url(#clip26)" />
<clipPath id="clip27"><path d="M185,68 L198,68 L198,81 L185,81 L185,68 Z" /></clipPath>
<path d="M195.5,74 C195.5,71.5147095 193.4852905,69.5 191,69.5 C188.5147095,69.5 186.5,71.5147095 186.5,74 C186.5,76.4852905 188.5147095,78.5 191,78.5 C193.4852905,78.5 195.5,76.4852905 195.5,74 Z M195.5,74" style="fill:none;stroke:rgb(180,200,240)" clip-path="url(#clip27)" />
<clipPath id="clip28"><path d="M185,68 L198,68 L198,81 L185,81 L185,68 Z" /></clipPath>
<path d="M189,74 L193,74" style="fill:none;stroke:rgb(150,160,200)" clip-path="url(#clip28)" />
<clipPath id="clip29"><path d="M204,64 L328,64 L328,85 L204,85 L204,64 Z" /></clipPath>
<path d="M206,83 L325,83" style="fill:none;stroke:rgb(128,128,128)" clip-path="url(#clip29)" />
<text x="211" y="78" style="font:10px Dialog">{#Default Service Folder}</text>
<clipPath id="clip30"><path d="M153,100 L340,100 L340,135 L153,135 L153,100 Z" /></clipPath>
<path d="M185,133 L198,133" style="fill:none;stroke:rgb(128,128,128)" clip-path="url(#clip30)" />
<clipPath id="clip31"><path d="M153,100 L340,100 L340,135 L153,135 L153,100 Z" /></clipPath>
<path d="M198,133 C200,128.3333435 203,126 207,126" style="fill:none;stroke:rgb(128,128,128)" clip-path="url(#clip31)" />
<clipPath id="clip32"><path d="M153,100 L188,100 L188,135 L153,135 L153,100 Z" /></clipPath>
<path d="M155,133 L185,133" style="fill:none;stroke:rgb(128,128,128)" clip-path="url(#clip32)" />
<text x="162" y="122" style="font:13px Dialog">_c</text>
<clipPath id="clip33"><path d="M186,111 L199,111 L199,124 L186,124 L186,111 Z" /></clipPath>
<path d="M196.5,117 C196.5,114.5147095 194.4852905,112.5 192,112.5 C189.5147095,112.5 187.5,114.5147095 187.5,117 C187.5,119.4852905 189.5147095,121.5 192,121.5 C194.4852905,121.5 196.5,119.4852905 196.5,117 Z M196.5,117" style="fill:rgb(210,230,255);stroke:none" clip-path="url(#clip33)" />
<clipPath id="clip34"><path d="M186,111 L199,111 L199,124 L186,124 L186,111 Z" /></clipPath>
<path d="M196.5,117 C196.5,114.5147095 194.4852905,112.5 192,112.5 C189.5147095,112.5 187.5,114.5147095 187.5,117 C187.5,119.4852905 189.5147095,121.5 192,121.5 C194.4852905,121.5 196.5,119.4852905 196.5,117 Z M196.5,117" style="fill:none;stroke:rgb(180,200,240)" clip-path="url(#clip34)" />
<clipPath id="clip35"><path d="M186,111 L199,111 L199,124 L186,124 L186,111 Z" /></clipPath>
<path d="M190,117 L194,117" style="fill:none;stroke:rgb(150,160,200)" clip-path="url(#clip35)" />
<clipPath id="clip36"><path d="M205,107 L340,107 L340,128 L205,128 L205,107 Z" /></clipPath>
<path d="M207,126 L337,126" style="fill:none;stroke:rgb(128,128,128)" clip-path="url(#clip36)" />
<text x="212" y="121" style="font:10px Dialog">{#Default Controller Folder}</text>
<clipPath id="clip37"><path d="M153,143 L314,143 L314,178 L153,178 L153,143 Z" /></clipPath>
<path d="M184,176 L197,176" style="fill:none;stroke:rgb(128,128,128)" clip-path="url(#clip37)" />
<clipPath id="clip38"><path d="M153,143 L314,143 L314,178 L153,178 L153,143 Z" /></clipPath>
<path d="M197,176 C199,171.3333282 202,169 206,169" style="fill:none;stroke:rgb(128,128,128)" clip-path="url(#clip38)" />
<clipPath id="clip39"><path d="M153,143 L187,143 L187,178 L153,178 L153,143 Z" /></clipPath>
<path d="M155,176 L184,176" style="fill:none;stroke:rgb(128,128,128)" clip-path="url(#clip39)" />
<text x="162" y="165" style="font:13px Dialog">_v</text>
<clipPath id="clip40"><path d="M185,154 L198,154 L198,167 L185,167 L185,154 Z" /></clipPath>
<path d="M195.5,160 C195.5,157.5147247 193.4852905,155.5 191,155.5 C188.5147095,155.5 186.5,157.5147247 186.5,160 C186.5,162.4852753 188.5147095,164.5 191,164.5 C193.4852905,164.5 195.5,162.4852753 195.5,160 Z M195.5,160" style="fill:rgb(210,230,255);stroke:none" clip-path="url(#clip40)" />
<clipPath id="clip41"><path d="M185,154 L198,154 L198,167 L185,167 L185,154 Z" /></clipPath>
<path d="M195.5,160 C195.5,157.5147247 193.4852905,155.5 191,155.5 C188.5147095,155.5 186.5,157.5147247 186.5,160 C186.5,162.4852753 188.5147095,164.5 191,164.5 C193.4852905,164.5 195.5,162.4852753 195.5,160 Z M195.5,160" style="fill:none;stroke:rgb(180,200,240)" clip-path="url(#clip41)" />
<clipPath id="clip42"><path d="M185,154 L198,154 L198,167 L185,167 L185,154 Z" /></clipPath>
<path d="M189,160 L193,160" style="fill:none;stroke:rgb(150,160,200)" clip-path="url(#clip42)" />
<clipPath id="clip43"><path d="M204,150 L314,150 L314,171 L204,171 L204,150 Z" /></clipPath>
<path d="M206,169 L311,169" style="fill:none;stroke:rgb(128,128,128)" clip-path="url(#clip43)" />
<text x="211" y="164" style="font:10px Dialog">{#Default View Folder}</text>
<clipPath id="clip44"><path d="M153,186 L412,186 L412,221 L153,221 L153,186 Z" /></clipPath>
<path d="M236,219 L249,219" style="fill:none;stroke:rgb(128,128,128)" clip-path="url(#clip44)" />
<clipPath id="clip45"><path d="M153,186 L412,186 L412,221 L153,221 L153,186 Z" /></clipPath>
<path d="M249,219 C251,214.3333282 254,212 258,212" style="fill:none;stroke:rgb(128,128,128)" clip-path="url(#clip45)" />
<clipPath id="clip46"><path d="M153,186 L239,186 L239,221 L153,221 L153,186 Z" /></clipPath>
<path d="M155,219 L236,219" style="fill:none;stroke:rgb(128,128,128)" clip-path="url(#clip46)" />
<text x="162" y="208" style="font:13px Dialog">config.php</text>
<clipPath id="clip47"><path d="M237,197 L250,197 L250,210 L237,210 L237,197 Z" /></clipPath>
<path d="M247.5,203 C247.5,200.5147247 245.4852753,198.5 243,198.5 C240.5147247,198.5 238.5,200.5147247 238.5,203 C238.5,205.4852753 240.5147247,207.5 243,207.5 C245.4852753,207.5 247.5,205.4852753 247.5,203 Z M247.5,203" style="fill:rgb(210,230,255);stroke:none" clip-path="url(#clip47)" />
<clipPath id="clip48"><path d="M237,197 L250,197 L250,210 L237,210 L237,197 Z" /></clipPath>
<path d="M247.5,203 C247.5,200.5147247 245.4852753,198.5 243,198.5 C240.5147247,198.5 238.5,200.5147247 238.5,203 C238.5,205.4852753 240.5147247,207.5 243,207.5 C245.4852753,207.5 247.5,205.4852753 247.5,203 Z M247.5,203" style="fill:none;stroke:rgb(180,200,240)" clip-path="url(#clip48)" />
<clipPath id="clip49"><path d="M237,197 L250,197 L250,210 L237,210 L237,197 Z" /></clipPath>
<path d="M241,203 L245,203" style="fill:none;stroke:rgb(150,160,200)" clip-path="url(#clip49)" />
<clipPath id="clip50"><path d="M256,193 L412,193 L412,214 L256,214 L256,193 Z" /></clipPath>
<path d="M258,212 L409,212" style="fill:none;stroke:rgb(128,128,128)" clip-path="url(#clip50)" />
<text x="263" y="207" style="font:10px Dialog">{#Common config，for all sites}</text>
<clipPath id="clip51"><path d="M153,229 L354,229 L354,264 L153,264 L153,229 Z" /></clipPath>
<path d="M185,262 L198,262" style="fill:none;stroke:rgb(128,128,128)" clip-path="url(#clip51)" />
<clipPath id="clip52"><path d="M153,229 L354,229 L354,264 L153,264 L153,229 Z" /></clipPath>
<path d="M198,262 C200,257.333313 203,255 207,255" style="fill:none;stroke:rgb(128,128,128)" clip-path="url(#clip52)" />
<clipPath id="clip53"><path d="M153,229 L188,229 L188,264 L153,264 L153,229 Z" /></clipPath>
<path d="M155,262 L185,262" style="fill:none;stroke:rgb(128,128,128)" clip-path="url(#clip53)" />
<text x="162" y="251" style="font:13px Dialog">lib</text>
<clipPath id="clip54"><path d="M186,240 L199,240 L199,253 L186,253 L186,240 Z" /></clipPath>
<path d="M196.5,246 C196.5,243.5147247 194.4852905,241.5 192,241.5 C189.5147095,241.5 187.5,243.5147247 187.5,246 C187.5,248.4852753 189.5147095,250.5 192,250.5 C194.4852905,250.5 196.5,248.4852753 196.5,246 Z M196.5,246" style="fill:rgb(210,230,255);stroke:none" clip-path="url(#clip54)" />
<clipPath id="clip55"><path d="M186,240 L199,240 L199,253 L186,253 L186,240 Z" /></clipPath>
<path d="M196.5,246 C196.5,243.5147247 194.4852905,241.5 192,241.5 C189.5147095,241.5 187.5,243.5147247 187.5,246 C187.5,248.4852753 189.5147095,250.5 192,250.5 C194.4852905,250.5 196.5,248.4852753 196.5,246 Z M196.5,246" style="fill:none;stroke:rgb(180,200,240)" clip-path="url(#clip55)" />
<clipPath id="clip56"><path d="M186,240 L199,240 L199,253 L186,253 L186,240 Z" /></clipPath>
<path d="M190,246 L194,246" style="fill:none;stroke:rgb(150,160,200)" clip-path="url(#clip56)" />
<clipPath id="clip57"><path d="M205,236 L354,236 L354,257 L205,257 L205,236 Z" /></clipPath>
<path d="M207,255 L351,255" style="fill:none;stroke:rgb(128,128,128)" clip-path="url(#clip57)" />
<text x="212" y="250" style="font:10px Dialog">{#Automatic loading Libraries}</text>
<clipPath id="clip58"><path d="M153,272 L404,272 L404,373 L153,373 L153,272 Z" /></clipPath>
<path d="M196,338 L209,338" style="fill:none;stroke:rgb(128,128,128)" clip-path="url(#clip58)" />
<clipPath id="clip59"><path d="M153,272 L404,272 L404,373 L153,373 L153,272 Z" /></clipPath>
<path d="M209,338 C211,306.6666565 214,291 218,291" style="fill:none;stroke:rgb(128,128,128)" clip-path="url(#clip59)" />
<clipPath id="clip60"><path d="M153,272 L404,272 L404,373 L153,373 L153,272 Z" /></clipPath>
<path d="M209,338 C211,320 214,311 218,311" style="fill:none;stroke:rgb(128,128,128)" clip-path="url(#clip60)" />
<clipPath id="clip61"><path d="M153,272 L404,272 L404,373 L153,373 L153,272 Z" /></clipPath>
<path d="M209,338 C211,333.3333435 214,331 218,331" style="fill:none;stroke:rgb(128,128,128)" clip-path="url(#clip61)" />
<clipPath id="clip62"><path d="M153,272 L404,272 L404,373 L153,373 L153,272 Z" /></clipPath>
<path d="M209,338 C211,346.6666565 214,351 218,351" style="fill:none;stroke:rgb(128,128,128)" clip-path="url(#clip62)" />
<clipPath id="clip63"><path d="M153,272 L404,272 L404,373 L153,373 L153,272 Z" /></clipPath>
<path d="M209,338 C211,360 214,371 218,371" style="fill:none;stroke:rgb(128,128,128)" clip-path="url(#clip63)" />
<clipPath id="clip64"><path d="M153,305 L199,305 L199,340 L153,340 L153,305 Z" /></clipPath>
<path d="M155,338 L196,338" style="fill:none;stroke:rgb(128,128,128)" clip-path="url(#clip64)" />
<text x="162" y="327" style="font:13px Dialog">web</text>
<clipPath id="clip65"><path d="M197,316 L210,316 L210,329 L197,329 L197,316 Z" /></clipPath>
<path d="M207.5,322 C207.5,319.5147095 205.4852753,317.5 203,317.5 C200.5147247,317.5 198.5,319.5147095 198.5,322 C198.5,324.4852905 200.5147247,326.5 203,326.5 C205.4852753,326.5 207.5,324.4852905 207.5,322 Z M207.5,322" style="fill:rgb(210,230,255);stroke:none" clip-path="url(#clip65)" />
<clipPath id="clip66"><path d="M197,316 L210,316 L210,329 L197,329 L197,316 Z" /></clipPath>
<path d="M207.5,322 C207.5,319.5147095 205.4852753,317.5 203,317.5 C200.5147247,317.5 198.5,319.5147095 198.5,322 C198.5,324.4852905 200.5147247,326.5 203,326.5 C205.4852753,326.5 207.5,324.4852905 207.5,322 Z M207.5,322" style="fill:none;stroke:rgb(180,200,240)" clip-path="url(#clip66)" />
<clipPath id="clip67"><path d="M197,316 L210,316 L210,329 L197,329 L197,316 Z" /></clipPath>
<path d="M201,322 L205,322" style="fill:none;stroke:rgb(150,160,200)" clip-path="url(#clip67)" />
<clipPath id="clip68"><path d="M216,272 L375,272 L375,293 L216,293 L216,272 Z" /></clipPath>
<path d="M244,291 L257,291" style="fill:none;stroke:rgb(128,128,128)" clip-path="url(#clip68)" />
<clipPath id="clip69"><path d="M216,272 L375,272 L375,293 L216,293 L216,272 Z" /></clipPath>
<path d="M257,291 C259,291 262,291 266,291" style="fill:none;stroke:rgb(128,128,128)" clip-path="url(#clip69)" />
<clipPath id="clip70"><path d="M216,272 L247,272 L247,293 L216,293 L216,272 Z" /></clipPath>
<path d="M218,291 L244,291" style="fill:none;stroke:rgb(128,128,128)" clip-path="url(#clip70)" />
<text x="223" y="286" style="font:10px Dialog">{#_m}</text>
<clipPath id="clip71"><path d="M245,276 L258,276 L258,289 L245,289 L245,276 Z" /></clipPath>
<path d="M255.5,282 C255.5,279.5147095 253.4852753,277.5 251,277.5 C248.5147247,277.5 246.5,279.5147095 246.5,282 C246.5,284.4852905 248.5147247,286.5 251,286.5 C253.4852753,286.5 255.5,284.4852905 255.5,282 Z M255.5,282" style="fill:rgb(210,230,255);stroke:none" clip-path="url(#clip71)" />
<clipPath id="clip72"><path d="M245,276 L258,276 L258,289 L245,289 L245,276 Z" /></clipPath>
<path d="M255.5,282 C255.5,279.5147095 253.4852753,277.5 251,277.5 C248.5147247,277.5 246.5,279.5147095 246.5,282 C246.5,284.4852905 248.5147247,286.5 251,286.5 C253.4852753,286.5 255.5,284.4852905 255.5,282 Z M255.5,282" style="fill:none;stroke:rgb(180,200,240)" clip-path="url(#clip72)" />
<clipPath id="clip73"><path d="M245,276 L258,276 L258,289 L245,289 L245,276 Z" /></clipPath>
<path d="M249,282 L253,282" style="fill:none;stroke:rgb(150,160,200)" clip-path="url(#clip73)" />
<clipPath id="clip74"><path d="M264,272 L375,272 L375,293 L264,293 L264,272 Z" /></clipPath>
<path d="M266,291 L372,291" style="fill:none;stroke:rgb(128,128,128)" clip-path="url(#clip74)" />
<text x="271" y="286" style="font:10px Dialog">{#Site's Model Folder}</text>
<clipPath id="clip75"><path d="M216,292 L376,292 L376,313 L216,313 L216,292 Z" /></clipPath>
<path d="M240,311 L253,311" style="fill:none;stroke:rgb(128,128,128)" clip-path="url(#clip75)" />
<clipPath id="clip76"><path d="M216,292 L376,292 L376,313 L216,313 L216,292 Z" /></clipPath>
<path d="M253,311 C255,311 258,311 262,311" style="fill:none;stroke:rgb(128,128,128)" clip-path="url(#clip76)" />
<clipPath id="clip77"><path d="M216,292 L243,292 L243,313 L216,313 L216,292 Z" /></clipPath>
<path d="M218,311 L240,311" style="fill:none;stroke:rgb(128,128,128)" clip-path="url(#clip77)" />
<text x="223" y="306" style="font:10px Dialog">{#_s}</text>
<clipPath id="clip78"><path d="M241,296 L254,296 L254,309 L241,309 L241,296 Z" /></clipPath>
<path d="M251.5,302 C251.5,299.5147095 249.4852753,297.5 247,297.5 C244.5147247,297.5 242.5,299.5147095 242.5,302 C242.5,304.4852905 244.5147247,306.5 247,306.5 C249.4852753,306.5 251.5,304.4852905 251.5,302 Z M251.5,302" style="fill:rgb(210,230,255);stroke:none" clip-path="url(#clip78)" />
<clipPath id="clip79"><path d="M241,296 L254,296 L254,309 L241,309 L241,296 Z" /></clipPath>
<path d="M251.5,302 C251.5,299.5147095 249.4852753,297.5 247,297.5 C244.5147247,297.5 242.5,299.5147095 242.5,302 C242.5,304.4852905 244.5147247,306.5 247,306.5 C249.4852753,306.5 251.5,304.4852905 251.5,302 Z M251.5,302" style="fill:none;stroke:rgb(180,200,240)" clip-path="url(#clip79)" />
<clipPath id="clip80"><path d="M241,296 L254,296 L254,309 L241,309 L241,296 Z" /></clipPath>
<path d="M245,302 L249,302" style="fill:none;stroke:rgb(150,160,200)" clip-path="url(#clip80)" />
<clipPath id="clip81"><path d="M260,292 L376,292 L376,313 L260,313 L260,292 Z" /></clipPath>
<path d="M262,311 L373,311" style="fill:none;stroke:rgb(128,128,128)" clip-path="url(#clip81)" />
<text x="267" y="306" style="font:10px Dialog">{#Site's Service Folder}</text>
<clipPath id="clip82"><path d="M216,312 L389,312 L389,333 L216,333 L216,312 Z" /></clipPath>
<path d="M241,331 L254,331" style="fill:none;stroke:rgb(128,128,128)" clip-path="url(#clip82)" />
<clipPath id="clip83"><path d="M216,312 L389,312 L389,333 L216,333 L216,312 Z" /></clipPath>
<path d="M254,331 C256,331 259,331 263,331" style="fill:none;stroke:rgb(128,128,128)" clip-path="url(#clip83)" />
<clipPath id="clip84"><path d="M216,312 L244,312 L244,333 L216,333 L216,312 Z" /></clipPath>
<path d="M218,331 L241,331" style="fill:none;stroke:rgb(128,128,128)" clip-path="url(#clip84)" />
<text x="223" y="326" style="font:10px Dialog">{#_c}</text>
<clipPath id="clip85"><path d="M242,316 L255,316 L255,329 L242,329 L242,316 Z" /></clipPath>
<path d="M252.5,322 C252.5,319.5147095 250.4852753,317.5 248,317.5 C245.5147247,317.5 243.5,319.5147095 243.5,322 C243.5,324.4852905 245.5147247,326.5 248,326.5 C250.4852753,326.5 252.5,324.4852905 252.5,322 Z M252.5,322" style="fill:rgb(210,230,255);stroke:none" clip-path="url(#clip85)" />
<clipPath id="clip86"><path d="M242,316 L255,316 L255,329 L242,329 L242,316 Z" /></clipPath>
<path d="M252.5,322 C252.5,319.5147095 250.4852753,317.5 248,317.5 C245.5147247,317.5 243.5,319.5147095 243.5,322 C243.5,324.4852905 245.5147247,326.5 248,326.5 C250.4852753,326.5 252.5,324.4852905 252.5,322 Z M252.5,322" style="fill:none;stroke:rgb(180,200,240)" clip-path="url(#clip86)" />
<clipPath id="clip87"><path d="M242,316 L255,316 L255,329 L242,329 L242,316 Z" /></clipPath>
<path d="M246,322 L250,322" style="fill:none;stroke:rgb(150,160,200)" clip-path="url(#clip87)" />
<clipPath id="clip88"><path d="M261,312 L389,312 L389,333 L261,333 L261,312 Z" /></clipPath>
<path d="M263,331 L386,331" style="fill:none;stroke:rgb(128,128,128)" clip-path="url(#clip88)" />
<text x="268" y="326" style="font:10px Dialog">{#Site's Controller Folder}</text>
<clipPath id="clip89"><path d="M216,332 L363,332 L363,353 L216,353 L216,332 Z" /></clipPath>
<path d="M240,351 L253,351" style="fill:none;stroke:rgb(128,128,128)" clip-path="url(#clip89)" />
<clipPath id="clip90"><path d="M216,332 L363,332 L363,353 L216,353 L216,332 Z" /></clipPath>
<path d="M253,351 C255,351 258,351 262,351" style="fill:none;stroke:rgb(128,128,128)" clip-path="url(#clip90)" />
<clipPath id="clip91"><path d="M216,332 L243,332 L243,353 L216,353 L216,332 Z" /></clipPath>
<path d="M218,351 L240,351" style="fill:none;stroke:rgb(128,128,128)" clip-path="url(#clip91)" />
<text x="223" y="346" style="font:10px Dialog">{#_v}</text>
<clipPath id="clip92"><path d="M241,336 L254,336 L254,349 L241,349 L241,336 Z" /></clipPath>
<path d="M251.5,342 C251.5,339.5147095 249.4852753,337.5 247,337.5 C244.5147247,337.5 242.5,339.5147095 242.5,342 C242.5,344.4852905 244.5147247,346.5 247,346.5 C249.4852753,346.5 251.5,344.4852905 251.5,342 Z M251.5,342" style="fill:rgb(210,230,255);stroke:none" clip-path="url(#clip92)" />
<clipPath id="clip93"><path d="M241,336 L254,336 L254,349 L241,349 L241,336 Z" /></clipPath>
<path d="M251.5,342 C251.5,339.5147095 249.4852753,337.5 247,337.5 C244.5147247,337.5 242.5,339.5147095 242.5,342 C242.5,344.4852905 244.5147247,346.5 247,346.5 C249.4852753,346.5 251.5,344.4852905 251.5,342 Z M251.5,342" style="fill:none;stroke:rgb(180,200,240)" clip-path="url(#clip93)" />
<clipPath id="clip94"><path d="M241,336 L254,336 L254,349 L241,349 L241,336 Z" /></clipPath>
<path d="M245,342 L249,342" style="fill:none;stroke:rgb(150,160,200)" clip-path="url(#clip94)" />
<clipPath id="clip95"><path d="M260,332 L363,332 L363,353 L260,353 L260,332 Z" /></clipPath>
<path d="M262,351 L360,351" style="fill:none;stroke:rgb(128,128,128)" clip-path="url(#clip95)" />
<text x="267" y="346" style="font:10px Dialog">{#Site's View Folder}</text>
<clipPath id="clip96"><path d="M216,352 L404,352 L404,373 L216,373 L216,352 Z" /></clipPath>
<path d="M281,371 L294,371" style="fill:none;stroke:rgb(128,128,128)" clip-path="url(#clip96)" />
<clipPath id="clip97"><path d="M216,352 L404,352 L404,373 L216,373 L216,352 Z" /></clipPath>
<path d="M294,371 C296,371 299,371 303,371" style="fill:none;stroke:rgb(128,128,128)" clip-path="url(#clip97)" />
<clipPath id="clip98"><path d="M216,352 L284,352 L284,373 L216,373 L216,352 Z" /></clipPath>
<path d="M218,371 L281,371" style="fill:none;stroke:rgb(128,128,128)" clip-path="url(#clip98)" />
<text x="223" y="366" style="font:10px Dialog">{#config.php}</text>
<clipPath id="clip99"><path d="M282,356 L295,356 L295,369 L282,369 L282,356 Z" /></clipPath>
<path d="M292.5,362 C292.5,359.5147095 290.4852905,357.5 288,357.5 C285.5147095,357.5 283.5,359.5147095 283.5,362 C283.5,364.4852905 285.5147095,366.5 288,366.5 C290.4852905,366.5 292.5,364.4852905 292.5,362 Z M292.5,362" style="fill:rgb(210,230,255);stroke:none" clip-path="url(#clip99)" />
<clipPath id="clip100"><path d="M282,356 L295,356 L295,369 L282,369 L282,356 Z" /></clipPath>
<path d="M292.5,362 C292.5,359.5147095 290.4852905,357.5 288,357.5 C285.5147095,357.5 283.5,359.5147095 283.5,362 C283.5,364.4852905 285.5147095,366.5 288,366.5 C290.4852905,366.5 292.5,364.4852905 292.5,362 Z M292.5,362" style="fill:none;stroke:rgb(180,200,240)" clip-path="url(#clip100)" />
<clipPath id="clip101"><path d="M282,356 L295,356 L295,369 L282,369 L282,356 Z" /></clipPath>
<path d="M286,362 L290,362" style="fill:none;stroke:rgb(150,160,200)" clip-path="url(#clip101)" />
<clipPath id="clip102"><path d="M301,352 L404,352 L404,373 L301,373 L301,352 Z" /></clipPath>
<path d="M303,371 L401,371" style="fill:none;stroke:rgb(128,128,128)" clip-path="url(#clip102)" />
<text x="308" y="366" style="font:10px Dialog">{#Config for the site}</text>
<clipPath id="clip103"><path d="M153,381 L390,381 L390,482 L153,482 L153,381 Z" /></clipPath>
<path d="M182,447 L195,447" style="fill:none;stroke:rgb(128,128,128)" clip-path="url(#clip103)" />
<clipPath id="clip104"><path d="M153,381 L390,381 L390,482 L153,482 L153,381 Z" /></clipPath>
<path d="M195,447 C197,415.6666565 200,400 204,400" style="fill:none;stroke:rgb(128,128,128)" clip-path="url(#clip104)" />
<clipPath id="clip105"><path d="M153,381 L390,381 L390,482 L153,482 L153,381 Z" /></clipPath>
<path d="M195,447 C197,429 200,420 204,420" style="fill:none;stroke:rgb(128,128,128)" clip-path="url(#clip105)" />
<clipPath id="clip106"><path d="M153,381 L390,381 L390,482 L153,482 L153,381 Z" /></clipPath>
<path d="M195,447 C197,442.3333435 200,440 204,440" style="fill:none;stroke:rgb(128,128,128)" clip-path="url(#clip106)" />
<clipPath id="clip107"><path d="M153,381 L390,381 L390,482 L153,482 L153,381 Z" /></clipPath>
<path d="M195,447 C197,455.6666565 200,460 204,460" style="fill:none;stroke:rgb(128,128,128)" clip-path="url(#clip107)" />
<clipPath id="clip108"><path d="M153,381 L390,381 L390,482 L153,482 L153,381 Z" /></clipPath>
<path d="M195,447 C197,469 200,480 204,480" style="fill:none;stroke:rgb(128,128,128)" clip-path="url(#clip108)" />
<clipPath id="clip109"><path d="M153,414 L185,414 L185,449 L153,449 L153,414 Z" /></clipPath>
<path d="M155,447 L182,447" style="fill:none;stroke:rgb(128,128,128)" clip-path="url(#clip109)" />
<text x="162" y="435" style="font:13px Dialog">m</text>
<clipPath id="clip110"><path d="M183,425 L196,425 L196,438 L183,438 L183,425 Z" /></clipPath>
<path d="M193.5,431 C193.5,428.5147095 191.4852905,426.5 189,426.5 C186.5147095,426.5 184.5,428.5147095 184.5,431 C184.5,433.4852905 186.5147095,435.5 189,435.5 C191.4852905,435.5 193.5,433.4852905 193.5,431 Z M193.5,431" style="fill:rgb(210,230,255);stroke:none" clip-path="url(#clip110)" />
<clipPath id="clip111"><path d="M183,425 L196,425 L196,438 L183,438 L183,425 Z" /></clipPath>
<path d="M193.5,431 C193.5,428.5147095 191.4852905,426.5 189,426.5 C186.5147095,426.5 184.5,428.5147095 184.5,431 C184.5,433.4852905 186.5147095,435.5 189,435.5 C191.4852905,435.5 193.5,433.4852905 193.5,431 Z M193.5,431" style="fill:none;stroke:rgb(180,200,240)" clip-path="url(#clip111)" />
<clipPath id="clip112"><path d="M183,425 L196,425 L196,438 L183,438 L183,425 Z" /></clipPath>
<path d="M187,431 L191,431" style="fill:none;stroke:rgb(150,160,200)" clip-path="url(#clip112)" />
<clipPath id="clip113"><path d="M202,381 L361,381 L361,402 L202,402 L202,381 Z" /></clipPath>
<path d="M230,400 L243,400" style="fill:none;stroke:rgb(128,128,128)" clip-path="url(#clip113)" />
<clipPath id="clip114"><path d="M202,381 L361,381 L361,402 L202,402 L202,381 Z" /></clipPath>
<path d="M243,400 C245,400 248,400 252,400" style="fill:none;stroke:rgb(128,128,128)" clip-path="url(#clip114)" />
<clipPath id="clip115"><path d="M202,381 L233,381 L233,402 L202,402 L202,381 Z" /></clipPath>
<path d="M204,400 L230,400" style="fill:none;stroke:rgb(128,128,128)" clip-path="url(#clip115)" />
<text x="209" y="395" style="font:10px Dialog">{#_m}</text>
<clipPath id="clip116"><path d="M231,385 L244,385 L244,398 L231,398 L231,385 Z" /></clipPath>
<path d="M241.5,391 C241.5,388.5147095 239.4852753,386.5 237,386.5 C234.5147247,386.5 232.5,388.5147095 232.5,391 C232.5,393.4852905 234.5147247,395.5 237,395.5 C239.4852753,395.5 241.5,393.4852905 241.5,391 Z M241.5,391" style="fill:rgb(210,230,255);stroke:none" clip-path="url(#clip116)" />
<clipPath id="clip117"><path d="M231,385 L244,385 L244,398 L231,398 L231,385 Z" /></clipPath>
<path d="M241.5,391 C241.5,388.5147095 239.4852753,386.5 237,386.5 C234.5147247,386.5 232.5,388.5147095 232.5,391 C232.5,393.4852905 234.5147247,395.5 237,395.5 C239.4852753,395.5 241.5,393.4852905 241.5,391 Z M241.5,391" style="fill:none;stroke:rgb(180,200,240)" clip-path="url(#clip117)" />
<clipPath id="clip118"><path d="M231,385 L244,385 L244,398 L231,398 L231,385 Z" /></clipPath>
<path d="M235,391 L239,391" style="fill:none;stroke:rgb(150,160,200)" clip-path="url(#clip118)" />
<clipPath id="clip119"><path d="M250,381 L361,381 L361,402 L250,402 L250,381 Z" /></clipPath>
<path d="M252,400 L358,400" style="fill:none;stroke:rgb(128,128,128)" clip-path="url(#clip119)" />
<text x="257" y="395" style="font:10px Dialog">{#Site's Model Folder}</text>
<clipPath id="clip120"><path d="M202,401 L362,401 L362,422 L202,422 L202,401 Z" /></clipPath>
<path d="M226,420 L239,420" style="fill:none;stroke:rgb(128,128,128)" clip-path="url(#clip120)" />
<clipPath id="clip121"><path d="M202,401 L362,401 L362,422 L202,422 L202,401 Z" /></clipPath>
<path d="M239,420 C241,420 244,420 248,420" style="fill:none;stroke:rgb(128,128,128)" clip-path="url(#clip121)" />
<clipPath id="clip122"><path d="M202,401 L229,401 L229,422 L202,422 L202,401 Z" /></clipPath>
<path d="M204,420 L226,420" style="fill:none;stroke:rgb(128,128,128)" clip-path="url(#clip122)" />
<text x="209" y="414" style="font:10px Dialog">{#_s}</text>
<clipPath id="clip123"><path d="M227,405 L240,405 L240,418 L227,418 L227,405 Z" /></clipPath>
<path d="M237.5,411 C237.5,408.5147095 235.4852753,406.5 233,406.5 C230.5147247,406.5 228.5,408.5147095 228.5,411 C228.5,413.4852905 230.5147247,415.5 233,415.5 C235.4852753,415.5 237.5,413.4852905 237.5,411 Z M237.5,411" style="fill:rgb(210,230,255);stroke:none" clip-path="url(#clip123)" />
<clipPath id="clip124"><path d="M227,405 L240,405 L240,418 L227,418 L227,405 Z" /></clipPath>
<path d="M237.5,411 C237.5,408.5147095 235.4852753,406.5 233,406.5 C230.5147247,406.5 228.5,408.5147095 228.5,411 C228.5,413.4852905 230.5147247,415.5 233,415.5 C235.4852753,415.5 237.5,413.4852905 237.5,411 Z M237.5,411" style="fill:none;stroke:rgb(180,200,240)" clip-path="url(#clip124)" />
<clipPath id="clip125"><path d="M227,405 L240,405 L240,418 L227,418 L227,405 Z" /></clipPath>
<path d="M231,411 L235,411" style="fill:none;stroke:rgb(150,160,200)" clip-path="url(#clip125)" />
<clipPath id="clip126"><path d="M246,401 L362,401 L362,422 L246,422 L246,401 Z" /></clipPath>
<path d="M248,420 L359,420" style="fill:none;stroke:rgb(128,128,128)" clip-path="url(#clip126)" />
<text x="253" y="414" style="font:10px Dialog">{#Site's Service Folder}</text>
<clipPath id="clip127"><path d="M202,421 L375,421 L375,442 L202,442 L202,421 Z" /></clipPath>
<path d="M227,440 L240,440" style="fill:none;stroke:rgb(128,128,128)" clip-path="url(#clip127)" />
<clipPath id="clip128"><path d="M202,421 L375,421 L375,442 L202,442 L202,421 Z" /></clipPath>
<path d="M240,440 C242,440 245,440 249,440" style="fill:none;stroke:rgb(128,128,128)" clip-path="url(#clip128)" />
<clipPath id="clip129"><path d="M202,421 L230,421 L230,442 L202,442 L202,421 Z" /></clipPath>
<path d="M204,440 L227,440" style="fill:none;stroke:rgb(128,128,128)" clip-path="url(#clip129)" />
<text x="209" y="434" style="font:10px Dialog">{#_c}</text>
<clipPath id="clip130"><path d="M228,425 L241,425 L241,438 L228,438 L228,425 Z" /></clipPath>
<path d="M238.5,431 C238.5,428.5147095 236.4852753,426.5 234,426.5 C231.5147247,426.5 229.5,428.5147095 229.5,431 C229.5,433.4852905 231.5147247,435.5 234,435.5 C236.4852753,435.5 238.5,433.4852905 238.5,431 Z M238.5,431" style="fill:rgb(210,230,255);stroke:none" clip-path="url(#clip130)" />
<clipPath id="clip131"><path d="M228,425 L241,425 L241,438 L228,438 L228,425 Z" /></clipPath>
<path d="M238.5,431 C238.5,428.5147095 236.4852753,426.5 234,426.5 C231.5147247,426.5 229.5,428.5147095 229.5,431 C229.5,433.4852905 231.5147247,435.5 234,435.5 C236.4852753,435.5 238.5,433.4852905 238.5,431 Z M238.5,431" style="fill:none;stroke:rgb(180,200,240)" clip-path="url(#clip131)" />
<clipPath id="clip132"><path d="M228,425 L241,425 L241,438 L228,438 L228,425 Z" /></clipPath>
<path d="M232,431 L236,431" style="fill:none;stroke:rgb(150,160,200)" clip-path="url(#clip132)" />
<clipPath id="clip133"><path d="M247,421 L375,421 L375,442 L247,442 L247,421 Z" /></clipPath>
<path d="M249,440 L372,440" style="fill:none;stroke:rgb(128,128,128)" clip-path="url(#clip133)" />
<text x="254" y="434" style="font:10px Dialog">{#Site's Controller Folder}</text>
<clipPath id="clip134"><path d="M202,441 L349,441 L349,462 L202,462 L202,441 Z" /></clipPath>
<path d="M226,460 L239,460" style="fill:none;stroke:rgb(128,128,128)" clip-path="url(#clip134)" />
<clipPath id="clip135"><path d="M202,441 L349,441 L349,462 L202,462 L202,441 Z" /></clipPath>
<path d="M239,460 C241,460 244,460 248,460" style="fill:none;stroke:rgb(128,128,128)" clip-path="url(#clip135)" />
<clipPath id="clip136"><path d="M202,441 L229,441 L229,462 L202,462 L202,441 Z" /></clipPath>
<path d="M204,460 L226,460" style="fill:none;stroke:rgb(128,128,128)" clip-path="url(#clip136)" />
<text x="209" y="454" style="font:10px Dialog">{#_v}</text>
<clipPath id="clip137"><path d="M227,445 L240,445 L240,458 L227,458 L227,445 Z" /></clipPath>
<path d="M237.5,451 C237.5,448.5147095 235.4852753,446.5 233,446.5 C230.5147247,446.5 228.5,448.5147095 228.5,451 C228.5,453.4852905 230.5147247,455.5 233,455.5 C235.4852753,455.5 237.5,453.4852905 237.5,451 Z M237.5,451" style="fill:rgb(210,230,255);stroke:none" clip-path="url(#clip137)" />
<clipPath id="clip138"><path d="M227,445 L240,445 L240,458 L227,458 L227,445 Z" /></clipPath>
<path d="M237.5,451 C237.5,448.5147095 235.4852753,446.5 233,446.5 C230.5147247,446.5 228.5,448.5147095 228.5,451 C228.5,453.4852905 230.5147247,455.5 233,455.5 C235.4852753,455.5 237.5,453.4852905 237.5,451 Z M237.5,451" style="fill:none;stroke:rgb(180,200,240)" clip-path="url(#clip138)" />
<clipPath id="clip139"><path d="M227,445 L240,445 L240,458 L227,458 L227,445 Z" /></clipPath>
<path d="M231,451 L235,451" style="fill:none;stroke:rgb(150,160,200)" clip-path="url(#clip139)" />
<clipPath id="clip140"><path d="M246,441 L349,441 L349,462 L246,462 L246,441 Z" /></clipPath>
<path d="M248,460 L346,460" style="fill:none;stroke:rgb(128,128,128)" clip-path="url(#clip140)" />
<text x="253" y="454" style="font:10px Dialog">{#Site's View Folder}</text>
<clipPath id="clip141"><path d="M202,461 L390,461 L390,482 L202,482 L202,461 Z" /></clipPath>
<path d="M267,480 L280,480" style="fill:none;stroke:rgb(128,128,128)" clip-path="url(#clip141)" />
<clipPath id="clip142"><path d="M202,461 L390,461 L390,482 L202,482 L202,461 Z" /></clipPath>
<path d="M280,480 C282,480 285,480 289,480" style="fill:none;stroke:rgb(128,128,128)" clip-path="url(#clip142)" />
<clipPath id="clip143"><path d="M202,461 L270,461 L270,482 L202,482 L202,461 Z" /></clipPath>
<path d="M204,480 L267,480" style="fill:none;stroke:rgb(128,128,128)" clip-path="url(#clip143)" />
<text x="209" y="474" style="font:10px Dialog">{#config.php}</text>
<clipPath id="clip144"><path d="M268,465 L281,465 L281,478 L268,478 L268,465 Z" /></clipPath>
<path d="M278.5,471 C278.5,468.5147095 276.4852905,466.5 274,466.5 C271.5147095,466.5 269.5,468.5147095 269.5,471 C269.5,473.4852905 271.5147095,475.5 274,475.5 C276.4852905,475.5 278.5,473.4852905 278.5,471 Z M278.5,471" style="fill:rgb(210,230,255);stroke:none" clip-path="url(#clip144)" />
<clipPath id="clip145"><path d="M268,465 L281,465 L281,478 L268,478 L268,465 Z" /></clipPath>
<path d="M278.5,471 C278.5,468.5147095 276.4852905,466.5 274,466.5 C271.5147095,466.5 269.5,468.5147095 269.5,471 C269.5,473.4852905 271.5147095,475.5 274,475.5 C276.4852905,475.5 278.5,473.4852905 278.5,471 Z M278.5,471" style="fill:none;stroke:rgb(180,200,240)" clip-path="url(#clip145)" />
<clipPath id="clip146"><path d="M268,465 L281,465 L281,478 L268,478 L268,465 Z" /></clipPath>
<path d="M272,471 L276,471" style="fill:none;stroke:rgb(150,160,200)" clip-path="url(#clip146)" />
<clipPath id="clip147"><path d="M287,461 L390,461 L390,482 L287,482 L287,461 Z" /></clipPath>
<path d="M289,480 L387,480" style="fill:none;stroke:rgb(128,128,128)" clip-path="url(#clip147)" />
<text x="294" y="474" style="font:10px Dialog">{#Config for the site}</text>
<clipPath id="clip148"><path d="M153,490 L416,490 L416,591 L153,591 L153,490 Z" /></clipPath>
<path d="M208,556 L221,556" style="fill:none;stroke:rgb(128,128,128)" clip-path="url(#clip148)" />
<clipPath id="clip149"><path d="M153,490 L416,490 L416,591 L153,591 L153,490 Z" /></clipPath>
<path d="M221,556 C223,524.666687 226,509 230,509" style="fill:none;stroke:rgb(128,128,128)" clip-path="url(#clip149)" />
<clipPath id="clip150"><path d="M153,490 L416,490 L416,591 L153,591 L153,490 Z" /></clipPath>
<path d="M221,556 C223,538 226,529 230,529" style="fill:none;stroke:rgb(128,128,128)" clip-path="url(#clip150)" />
<clipPath id="clip151"><path d="M153,490 L416,490 L416,591 L153,591 L153,490 Z" /></clipPath>
<path d="M221,556 C223,551.333313 226,549 230,549" style="fill:none;stroke:rgb(128,128,128)" clip-path="url(#clip151)" />
<clipPath id="clip152"><path d="M153,490 L416,490 L416,591 L153,591 L153,490 Z" /></clipPath>
<path d="M221,556 C223,564.666687 226,569 230,569" style="fill:none;stroke:rgb(128,128,128)" clip-path="url(#clip152)" />
<clipPath id="clip153"><path d="M153,490 L416,490 L416,591 L153,591 L153,490 Z" /></clipPath>
<path d="M221,556 C223,578 226,589 230,589" style="fill:none;stroke:rgb(128,128,128)" clip-path="url(#clip153)" />
<clipPath id="clip154"><path d="M153,523 L211,523 L211,558 L153,558 L153,523 Z" /></clipPath>
<path d="M155,556 L208,556" style="fill:none;stroke:rgb(128,128,128)" clip-path="url(#clip154)" />
<text x="162" y="544" style="font:13px Dialog">admin</text>
<clipPath id="clip155"><path d="M209,534 L222,534 L222,547 L209,547 L209,534 Z" /></clipPath>
<path d="M219.5,540 C219.5,537.5147095 217.4852753,535.5 215,535.5 C212.5147247,535.5 210.5,537.5147095 210.5,540 C210.5,542.4852905 212.5147247,544.5 215,544.5 C217.4852753,544.5 219.5,542.4852905 219.5,540 Z M219.5,540" style="fill:rgb(210,230,255);stroke:none" clip-path="url(#clip155)" />
<clipPath id="clip156"><path d="M209,534 L222,534 L222,547 L209,547 L209,534 Z" /></clipPath>
<path d="M219.5,540 C219.5,537.5147095 217.4852753,535.5 215,535.5 C212.5147247,535.5 210.5,537.5147095 210.5,540 C210.5,542.4852905 212.5147247,544.5 215,544.5 C217.4852753,544.5 219.5,542.4852905 219.5,540 Z M219.5,540" style="fill:none;stroke:rgb(180,200,240)" clip-path="url(#clip156)" />
<clipPath id="clip157"><path d="M209,534 L222,534 L222,547 L209,547 L209,534 Z" /></clipPath>
<path d="M213,540 L217,540" style="fill:none;stroke:rgb(150,160,200)" clip-path="url(#clip157)" />
<clipPath id="clip158"><path d="M228,490 L387,490 L387,511 L228,511 L228,490 Z" /></clipPath>
<path d="M256,509 L269,509" style="fill:none;stroke:rgb(128,128,128)" clip-path="url(#clip158)" />
<clipPath id="clip159"><path d="M228,490 L387,490 L387,511 L228,511 L228,490 Z" /></clipPath>
<path d="M269,509 C271,509 274,509 278,509" style="fill:none;stroke:rgb(128,128,128)" clip-path="url(#clip159)" />
<clipPath id="clip160"><path d="M228,490 L259,490 L259,511 L228,511 L228,490 Z" /></clipPath>
<path d="M230,509 L256,509" style="fill:none;stroke:rgb(128,128,128)" clip-path="url(#clip160)" />
<text x="235" y="503" style="font:10px Dialog">{#_m}</text>
<clipPath id="clip161"><path d="M257,494 L270,494 L270,507 L257,507 L257,494 Z" /></clipPath>
<path d="M267.5,500 C267.5,497.5147095 265.4852905,495.5 263,495.5 C260.5147095,495.5 258.5,497.5147095 258.5,500 C258.5,502.4852905 260.5147095,504.5 263,504.5 C265.4852905,504.5 267.5,502.4852905 267.5,500 Z M267.5,500" style="fill:rgb(210,230,255);stroke:none" clip-path="url(#clip161)" />
<clipPath id="clip162"><path d="M257,494 L270,494 L270,507 L257,507 L257,494 Z" /></clipPath>
<path d="M267.5,500 C267.5,497.5147095 265.4852905,495.5 263,495.5 C260.5147095,495.5 258.5,497.5147095 258.5,500 C258.5,502.4852905 260.5147095,504.5 263,504.5 C265.4852905,504.5 267.5,502.4852905 267.5,500 Z M267.5,500" style="fill:none;stroke:rgb(180,200,240)" clip-path="url(#clip162)" />
<clipPath id="clip163"><path d="M257,494 L270,494 L270,507 L257,507 L257,494 Z" /></clipPath>
<path d="M261,500 L265,500" style="fill:none;stroke:rgb(150,160,200)" clip-path="url(#clip163)" />
<clipPath id="clip164"><path d="M276,490 L387,490 L387,511 L276,511 L276,490 Z" /></clipPath>
<path d="M278,509 L384,509" style="fill:none;stroke:rgb(128,128,128)" clip-path="url(#clip164)" />
<text x="283" y="503" style="font:10px Dialog">{#Site's Model Folder}</text>
<clipPath id="clip165"><path d="M228,510 L388,510 L388,531 L228,531 L228,510 Z" /></clipPath>
<path d="M252,529 L265,529" style="fill:none;stroke:rgb(128,128,128)" clip-path="url(#clip165)" />
<clipPath id="clip166"><path d="M228,510 L388,510 L388,531 L228,531 L228,510 Z" /></clipPath>
<path d="M265,529 C267,529 270,529 274,529" style="fill:none;stroke:rgb(128,128,128)" clip-path="url(#clip166)" />
<clipPath id="clip167"><path d="M228,510 L255,510 L255,531 L228,531 L228,510 Z" /></clipPath>
<path d="M230,529 L252,529" style="fill:none;stroke:rgb(128,128,128)" clip-path="url(#clip167)" />
<text x="235" y="523" style="font:10px Dialog">{#_s}</text>
<clipPath id="clip168"><path d="M253,514 L266,514 L266,527 L253,527 L253,514 Z" /></clipPath>
<path d="M263.5,520 C263.5,517.5147095 261.4852905,515.5 259,515.5 C256.5147095,515.5 254.5,517.5147095 254.5,520 C254.5,522.4852905 256.5147095,524.5 259,524.5 C261.4852905,524.5 263.5,522.4852905 263.5,520 Z M263.5,520" style="fill:rgb(210,230,255);stroke:none" clip-path="url(#clip168)" />
<clipPath id="clip169"><path d="M253,514 L266,514 L266,527 L253,527 L253,514 Z" /></clipPath>
<path d="M263.5,520 C263.5,517.5147095 261.4852905,515.5 259,515.5 C256.5147095,515.5 254.5,517.5147095 254.5,520 C254.5,522.4852905 256.5147095,524.5 259,524.5 C261.4852905,524.5 263.5,522.4852905 263.5,520 Z M263.5,520" style="fill:none;stroke:rgb(180,200,240)" clip-path="url(#clip169)" />
<clipPath id="clip170"><path d="M253,514 L266,514 L266,527 L253,527 L253,514 Z" /></clipPath>
<path d="M257,520 L261,520" style="fill:none;stroke:rgb(150,160,200)" clip-path="url(#clip170)" />
<clipPath id="clip171"><path d="M272,510 L388,510 L388,531 L272,531 L272,510 Z" /></clipPath>
<path d="M274,529 L385,529" style="fill:none;stroke:rgb(128,128,128)" clip-path="url(#clip171)" />
<text x="279" y="523" style="font:10px Dialog">{#Site's Service Folder}</text>
<clipPath id="clip172"><path d="M228,530 L401,530 L401,551 L228,551 L228,530 Z" /></clipPath>
<path d="M253,549 L266,549" style="fill:none;stroke:rgb(128,128,128)" clip-path="url(#clip172)" />
<clipPath id="clip173"><path d="M228,530 L401,530 L401,551 L228,551 L228,530 Z" /></clipPath>
<path d="M266,549 C268,549 271,549 275,549" style="fill:none;stroke:rgb(128,128,128)" clip-path="url(#clip173)" />
<clipPath id="clip174"><path d="M228,530 L256,530 L256,551 L228,551 L228,530 Z" /></clipPath>
<path d="M230,549 L253,549" style="fill:none;stroke:rgb(128,128,128)" clip-path="url(#clip174)" />
<text x="235" y="543" style="font:10px Dialog">{#_c}</text>
<clipPath id="clip175"><path d="M254,534 L267,534 L267,547 L254,547 L254,534 Z" /></clipPath>
<path d="M264.5,540 C264.5,537.5147095 262.4852905,535.5 260,535.5 C257.5147095,535.5 255.5,537.5147095 255.5,540 C255.5,542.4852905 257.5147095,544.5 260,544.5 C262.4852905,544.5 264.5,542.4852905 264.5,540 Z M264.5,540" style="fill:rgb(210,230,255);stroke:none" clip-path="url(#clip175)" />
<clipPath id="clip176"><path d="M254,534 L267,534 L267,547 L254,547 L254,534 Z" /></clipPath>
<path d="M264.5,540 C264.5,537.5147095 262.4852905,535.5 260,535.5 C257.5147095,535.5 255.5,537.5147095 255.5,540 C255.5,542.4852905 257.5147095,544.5 260,544.5 C262.4852905,544.5 264.5,542.4852905 264.5,540 Z M264.5,540" style="fill:none;stroke:rgb(180,200,240)" clip-path="url(#clip176)" />
<clipPath id="clip177"><path d="M254,534 L267,534 L267,547 L254,547 L254,534 Z" /></clipPath>
<path d="M258,540 L262,540" style="fill:none;stroke:rgb(150,160,200)" clip-path="url(#clip177)" />
<clipPath id="clip178"><path d="M273,530 L401,530 L401,551 L273,551 L273,530 Z" /></clipPath>
<path d="M275,549 L398,549" style="fill:none;stroke:rgb(128,128,128)" clip-path="url(#clip178)" />
<text x="280" y="543" style="font:10px Dialog">{#Site's Controller Folder}</text>
<clipPath id="clip179"><path d="M228,550 L375,550 L375,571 L228,571 L228,550 Z" /></clipPath>
<path d="M252,569 L265,569" style="fill:none;stroke:rgb(128,128,128)" clip-path="url(#clip179)" />
<clipPath id="clip180"><path d="M228,550 L375,550 L375,571 L228,571 L228,550 Z" /></clipPath>
<path d="M265,569 C267,569 270,569 274,569" style="fill:none;stroke:rgb(128,128,128)" clip-path="url(#clip180)" />
<clipPath id="clip181"><path d="M228,550 L255,550 L255,571 L228,571 L228,550 Z" /></clipPath>
<path d="M230,569 L252,569" style="fill:none;stroke:rgb(128,128,128)" clip-path="url(#clip181)" />
<text x="235" y="563" style="font:10px Dialog">{#_v}</text>
<clipPath id="clip182"><path d="M253,554 L266,554 L266,567 L253,567 L253,554 Z" /></clipPath>
<path d="M263.5,560 C263.5,557.5147095 261.4852905,555.5 259,555.5 C256.5147095,555.5 254.5,557.5147095 254.5,560 C254.5,562.4852905 256.5147095,564.5 259,564.5 C261.4852905,564.5 263.5,562.4852905 263.5,560 Z M263.5,560" style="fill:rgb(210,230,255);stroke:none" clip-path="url(#clip182)" />
<clipPath id="clip183"><path d="M253,554 L266,554 L266,567 L253,567 L253,554 Z" /></clipPath>
<path d="M263.5,560 C263.5,557.5147095 261.4852905,555.5 259,555.5 C256.5147095,555.5 254.5,557.5147095 254.5,560 C254.5,562.4852905 256.5147095,564.5 259,564.5 C261.4852905,564.5 263.5,562.4852905 263.5,560 Z M263.5,560" style="fill:none;stroke:rgb(180,200,240)" clip-path="url(#clip183)" />
<clipPath id="clip184"><path d="M253,554 L266,554 L266,567 L253,567 L253,554 Z" /></clipPath>
<path d="M257,560 L261,560" style="fill:none;stroke:rgb(150,160,200)" clip-path="url(#clip184)" />
<clipPath id="clip185"><path d="M272,550 L375,550 L375,571 L272,571 L272,550 Z" /></clipPath>
<path d="M274,569 L372,569" style="fill:none;stroke:rgb(128,128,128)" clip-path="url(#clip185)" />
<text x="279" y="563" style="font:10px Dialog">{#Site's View Folder}</text>
<clipPath id="clip186"><path d="M228,570 L416,570 L416,591 L228,591 L228,570 Z" /></clipPath>
<path d="M293,589 L306,589" style="fill:none;stroke:rgb(128,128,128)" clip-path="url(#clip186)" />
<clipPath id="clip187"><path d="M228,570 L416,570 L416,591 L228,591 L228,570 Z" /></clipPath>
<path d="M306,589 C308,589 311,589 315,589" style="fill:none;stroke:rgb(128,128,128)" clip-path="url(#clip187)" />
<clipPath id="clip188"><path d="M228,570 L296,570 L296,591 L228,591 L228,570 Z" /></clipPath>
<path d="M230,589 L293,589" style="fill:none;stroke:rgb(128,128,128)" clip-path="url(#clip188)" />
<text x="235" y="583" style="font:10px Dialog">{#config.php}</text>
<clipPath id="clip189"><path d="M294,574 L307,574 L307,587 L294,587 L294,574 Z" /></clipPath>
<path d="M304.5,580 C304.5,577.5147095 302.4852905,575.5 300,575.5 C297.5147095,575.5 295.5,577.5147095 295.5,580 C295.5,582.4852905 297.5147095,584.5 300,584.5 C302.4852905,584.5 304.5,582.4852905 304.5,580 Z M304.5,580" style="fill:rgb(210,230,255);stroke:none" clip-path="url(#clip189)" />
<clipPath id="clip190"><path d="M294,574 L307,574 L307,587 L294,587 L294,574 Z" /></clipPath>
<path d="M304.5,580 C304.5,577.5147095 302.4852905,575.5 300,575.5 C297.5147095,575.5 295.5,577.5147095 295.5,580 C295.5,582.4852905 297.5147095,584.5 300,584.5 C302.4852905,584.5 304.5,582.4852905 304.5,580 Z M304.5,580" style="fill:none;stroke:rgb(180,200,240)" clip-path="url(#clip190)" />
<clipPath id="clip191"><path d="M294,574 L307,574 L307,587 L294,587 L294,574 Z" /></clipPath>
<path d="M298,580 L302,580" style="fill:none;stroke:rgb(150,160,200)" clip-path="url(#clip191)" />
<clipPath id="clip192"><path d="M313,570 L416,570 L416,591 L313,591 L313,570 Z" /></clipPath>
<path d="M315,589 L413,589" style="fill:none;stroke:rgb(128,128,128)" clip-path="url(#clip192)" />
<text x="320" y="583" style="font:10px Dialog">{#Config for the site}</text>
<clipPath id="clip193"><path d="M153,599 L406,599 L406,634 L153,634 L153,599 Z" /></clipPath>
<path d="M203,632 L216,632" style="fill:none;stroke:rgb(128,128,128)" clip-path="url(#clip193)" />
<clipPath id="clip194"><path d="M153,599 L406,599 L406,634 L153,634 L153,599 Z" /></clipPath>
<path d="M216,632 C218,627.333313 221,625 225,625" style="fill:none;stroke:rgb(128,128,128)" clip-path="url(#clip194)" />
<clipPath id="clip195"><path d="M153,599 L206,599 L206,634 L153,634 L153,599 Z" /></clipPath>
<path d="M155,632 L203,632" style="fill:none;stroke:rgb(128,128,128)" clip-path="url(#clip195)" />
<text x="162" y="620" style="font:13px Dialog">langs</text>
<clipPath id="clip196"><path d="M204,610 L217,610 L217,623 L204,623 L204,610 Z" /></clipPath>
<path d="M214.5,616 C214.5,613.5147095 212.4852753,611.5 210,611.5 C207.5147247,611.5 205.5,613.5147095 205.5,616 C205.5,618.4852905 207.5147247,620.5 210,620.5 C212.4852753,620.5 214.5,618.4852905 214.5,616 Z M214.5,616" style="fill:rgb(210,230,255);stroke:none" clip-path="url(#clip196)" />
<clipPath id="clip197"><path d="M204,610 L217,610 L217,623 L204,623 L204,610 Z" /></clipPath>
<path d="M214.5,616 C214.5,613.5147095 212.4852753,611.5 210,611.5 C207.5147247,611.5 205.5,613.5147095 205.5,616 C205.5,618.4852905 207.5147247,620.5 210,620.5 C212.4852753,620.5 214.5,618.4852905 214.5,616 Z M214.5,616" style="fill:none;stroke:rgb(180,200,240)" clip-path="url(#clip197)" />
<clipPath id="clip198"><path d="M204,610 L217,610 L217,623 L204,623 L204,610 Z" /></clipPath>
<path d="M208,616 L212,616" style="fill:none;stroke:rgb(150,160,200)" clip-path="url(#clip198)" />
<clipPath id="clip199"><path d="M223,606 L406,606 L406,627 L223,627 L223,606 Z" /></clipPath>
<path d="M225,625 L403,625" style="fill:none;stroke:rgb(128,128,128)" clip-path="url(#clip199)" />
<text x="230" y="619" style="font:10px Dialog">{#Localization multi-language Folder}</text>
<clipPath id="clip200"><path d="M153,642 L326,642 L326,677 L153,677 L153,642 Z" /></clipPath>
<path d="M201,675 L214,675" style="fill:none;stroke:rgb(128,128,128)" clip-path="url(#clip200)" />
<clipPath id="clip201"><path d="M153,642 L326,642 L326,677 L153,677 L153,642 Z" /></clipPath>
<path d="M214,675 C216,670.333374 219,668 223,668" style="fill:none;stroke:rgb(128,128,128)" clip-path="url(#clip201)" />
<clipPath id="clip202"><path d="M153,642 L204,642 L204,677 L153,677 L153,642 Z" /></clipPath>
<path d="M155,675 L201,675" style="fill:none;stroke:rgb(128,128,128)" clip-path="url(#clip202)" />
<text x="162" y="663" style="font:13px Dialog">webroot</text>
<clipPath id="clip203"><path d="M202,653 L215,653 L215,666 L202,666 L202,653 Z" /></clipPath>
<path d="M212.5,659 C212.5,656.5147095 210.4852753,654.5 208,654.5 C205.5147247,654.5 203.5,656.5147095 203.5,659 C203.5,661.4852905 205.5147247,663.5 208,663.5 C210.4852753,663.5 212.5,661.4852905 212.5,659 Z M212.5,659" style="fill:rgb(210,230,255);stroke:none" clip-path="url(#clip203)" />
<clipPath id="clip204"><path d="M202,653 L215,653 L215,666 L202,666 L202,653 Z" /></clipPath>
<path d="M212.5,659 C212.5,656.5147095 210.4852753,654.5 208,654.5 C205.5147247,654.5 203.5,656.5147095 203.5,659 C203.5,661.4852905 205.5147247,663.5 208,663.5 C210.4852753,663.5 212.5,661.4852905 212.5,659 Z M212.5,659" style="fill:none;stroke:rgb(180,200,240)" clip-path="url(#clip204)" />
<clipPath id="clip205"><path d="M202,653 L215,653 L215,666 L202,666 L202,653 Z" /></clipPath>
<path d="M206,659 L210,659" style="fill:none;stroke:rgb(150,160,200)" clip-path="url(#clip205)" />
<clipPath id="clip206"><path d="M221,649 L326,649 L326,670 L221,670 L221,649 Z" /></clipPath>
<path d="M223,668 L323,668" style="fill:none;stroke:rgb(128,128,128)" clip-path="url(#clip206)" />
<text x="228" y="662" style="font:10px Dialog">{#Virtual host Folder}</text>
<clipPath id="clip207"><path d="M153,685 L305,685 L305,720 L153,720 L153,685 Z" /></clipPath>
<path d="M189,718 L202,718" style="fill:none;stroke:rgb(128,128,128)" clip-path="url(#clip207)" />
<clipPath id="clip208"><path d="M153,685 L305,685 L305,720 L153,720 L153,685 Z" /></clipPath>
<path d="M202,718 C204,713.333374 207,711 211,711" style="fill:none;stroke:rgb(128,128,128)" clip-path="url(#clip208)" />
<clipPath id="clip209"><path d="M153,685 L192,685 L192,720 L153,720 L153,685 Z" /></clipPath>
<path d="M155,718 L189,718" style="fill:none;stroke:rgb(128,128,128)" clip-path="url(#clip209)" />
<text x="162" y="706" style="font:13px Dialog">res</text>
<clipPath id="clip210"><path d="M190,696 L203,696 L203,709 L190,709 L190,696 Z" /></clipPath>
<path d="M200.5,702 C200.5,699.5147095 198.4852753,697.5 196,697.5 C193.5147095,697.5 191.5,699.5147095 191.5,702 C191.5,704.4852905 193.5147095,706.5 196,706.5 C198.4852753,706.5 200.5,704.4852905 200.5,702 Z M200.5,702" style="fill:rgb(210,230,255);stroke:none" clip-path="url(#clip210)" />
<clipPath id="clip211"><path d="M190,696 L203,696 L203,709 L190,709 L190,696 Z" /></clipPath>
<path d="M200.5,702 C200.5,699.5147095 198.4852753,697.5 196,697.5 C193.5147095,697.5 191.5,699.5147095 191.5,702 C191.5,704.4852905 193.5147095,706.5 196,706.5 C198.4852753,706.5 200.5,704.4852905 200.5,702 Z M200.5,702" style="fill:none;stroke:rgb(180,200,240)" clip-path="url(#clip211)" />
<clipPath id="clip212"><path d="M190,696 L203,696 L203,709 L190,709 L190,696 Z" /></clipPath>
<path d="M194,702 L198,702" style="fill:none;stroke:rgb(150,160,200)" clip-path="url(#clip212)" />
<clipPath id="clip213"><path d="M209,692 L305,692 L305,713 L209,713 L209,692 Z" /></clipPath>
<path d="M211,711 L302,711" style="fill:none;stroke:rgb(128,128,128)" clip-path="url(#clip213)" />
<text x="216" y="705" style="font:10px Dialog">{#Resource Folder}</text>
<clipPath id="clip214"><path d="M153,728 L370,728 L370,763 L153,763 L153,728 Z" /></clipPath>
<path d="M245,761 L258,761" style="fill:none;stroke:rgb(128,128,128)" clip-path="url(#clip214)" />
<clipPath id="clip215"><path d="M153,728 L370,728 L370,763 L153,763 L153,728 Z" /></clipPath>
<path d="M258,761 C260,756.333374 263,754 267,754" style="fill:none;stroke:rgb(128,128,128)" clip-path="url(#clip215)" />
<clipPath id="clip216"><path d="M153,728 L248,728 L248,763 L153,763 L153,728 Z" /></clipPath>
<path d="M155,761 L245,761" style="fill:none;stroke:rgb(128,128,128)" clip-path="url(#clip216)" />
<text x="162" y="749" style="font:13px Dialog">/tmp/_views</text>
<clipPath id="clip217"><path d="M246,739 L259,739 L259,752 L246,752 L246,739 Z" /></clipPath>
<path d="M256.5,745 C256.5,742.5147095 254.4852753,740.5 252,740.5 C249.5147247,740.5 247.5,742.5147095 247.5,745 C247.5,747.4852905 249.5147247,749.5 252,749.5 C254.4852753,749.5 256.5,747.4852905 256.5,745 Z M256.5,745" style="fill:rgb(210,230,255);stroke:none" clip-path="url(#clip217)" />
<clipPath id="clip218"><path d="M246,739 L259,739 L259,752 L246,752 L246,739 Z" /></clipPath>
<path d="M256.5,745 C256.5,742.5147095 254.4852753,740.5 252,740.5 C249.5147247,740.5 247.5,742.5147095 247.5,745 C247.5,747.4852905 249.5147247,749.5 252,749.5 C254.4852753,749.5 256.5,747.4852905 256.5,745 Z M256.5,745" style="fill:none;stroke:rgb(180,200,240)" clip-path="url(#clip218)" />
<clipPath id="clip219"><path d="M246,739 L259,739 L259,752 L246,752 L246,739 Z" /></clipPath>
<path d="M250,745 L254,745" style="fill:none;stroke:rgb(150,160,200)" clip-path="url(#clip219)" />
<clipPath id="clip220"><path d="M265,735 L370,735 L370,756 L265,756 L265,735 Z" /></clipPath>
<path d="M267,754 L367,754" style="fill:none;stroke:rgb(128,128,128)" clip-path="url(#clip220)" />
<text x="272" y="748" style="font:10px Dialog">{#View cache Folder}</text>
</svg>
