<?xml version="1.0" encoding="UTF-8"?>
<!DOCTYPE svg PUBLIC "-//W3C//DTD SVG 1.1//EN" "http://www.w3.org/Graphics/SVG/1.1/DTD/svg11.dtd">
<svg version="1.2" xmlns="http://www.w3.org/2000/svg" xmlns:xlink="http://www.w3.org/1999/xlink" x="0" y="0" width="922" height="1079" viewBox="0 0 922 1079">
<style type="text/css"><![CDATA[
text { font:12px Dialog; }
]]></style>
<rect x="-1586" y="-485" width="3308" height="2049" style="fill:rgb(255,255,255);stroke:none" />
<clipPath id="clip1"><path d="M14,14 L908,14 L908,1065 L14,1065 L14,14 Z" /></clipPath>
<path d="M122,539 L132,539" style="fill:none;stroke:rgb(128,128,128)" clip-path="url(#clip1)" />
<clipPath id="clip2"><path d="M14,14 L908,14 L908,1065 L14,1065 L14,14 Z" /></clipPath>
<path d="M132,539 C136.8888855,216.3333435 144.222229,55 154,55" style="fill:none;stroke:rgb(128,128,128)" clip-path="url(#clip2)" />
<clipPath id="clip3"><path d="M14,14 L908,14 L908,1065 L14,1065 L14,14 Z" /></clipPath>
<path d="M132,539 C136.8888855,253 144.222229,110 154,110" style="fill:none;stroke:rgb(128,128,128)" clip-path="url(#clip3)" />
<clipPath id="clip4"><path d="M14,14 L908,14 L908,1065 L14,1065 L14,14 Z" /></clipPath>
<path d="M132,539 C136.8888855,289.666687 144.222229,165 154,165" style="fill:none;stroke:rgb(128,128,128)" clip-path="url(#clip4)" />
<clipPath id="clip5"><path d="M14,14 L908,14 L908,1065 L14,1065 L14,14 Z" /></clipPath>
<path d="M132,539 C136.8888855,341.666687 144.222229,243 154,243" style="fill:none;stroke:rgb(128,128,128)" clip-path="url(#clip5)" />
<clipPath id="clip6"><path d="M14,14 L908,14 L908,1065 L14,1065 L14,14 Z" /></clipPath>
<path d="M132,539 C136.8888855,417 144.222229,356 154,356" style="fill:none;stroke:rgb(128,128,128)" clip-path="url(#clip6)" />
<clipPath id="clip7"><path d="M14,14 L908,14 L908,1065 L14,1065 L14,14 Z" /></clipPath>
<path d="M132,539 C136.8888855,484.3333435 144.222229,457 154,457" style="fill:none;stroke:rgb(128,128,128)" clip-path="url(#clip7)" />
<clipPath id="clip8"><path d="M14,14 L908,14 L908,1065 L14,1065 L14,14 Z" /></clipPath>
<path d="M132,539 C136.8888855,526.333313 144.222229,520 154,520" style="fill:none;stroke:rgb(128,128,128)" clip-path="url(#clip8)" />
<clipPath id="clip9"><path d="M14,14 L908,14 L908,1065 L14,1065 L14,14 Z" /></clipPath>
<path d="M132,539 C136.8888855,559 144.222229,569 154,569" style="fill:none;stroke:rgb(128,128,128)" clip-path="url(#clip9)" />
<clipPath id="clip10"><path d="M14,14 L908,14 L908,1065 L14,1065 L14,14 Z" /></clipPath>
<path d="M132,539 C136.8888855,599 144.222229,629 154,629" style="fill:none;stroke:rgb(128,128,128)" clip-path="url(#clip10)" />
<clipPath id="clip11"><path d="M14,14 L908,14 L908,1065 L14,1065 L14,14 Z" /></clipPath>
<path d="M132,539 C136.8888855,646.333313 144.222229,700 154,700" style="fill:none;stroke:rgb(128,128,128)" clip-path="url(#clip11)" />
<clipPath id="clip12"><path d="M14,14 L908,14 L908,1065 L14,1065 L14,14 Z" /></clipPath>
<path d="M132,539 C136.8888855,689 144.222229,764 154,764" style="fill:none;stroke:rgb(128,128,128)" clip-path="url(#clip12)" />
<clipPath id="clip13"><path d="M14,14 L908,14 L908,1065 L14,1065 L14,14 Z" /></clipPath>
<path d="M132,539 C136.8888855,723.666687 144.222229,816 154,816" style="fill:none;stroke:rgb(128,128,128)" clip-path="url(#clip13)" />
<clipPath id="clip14"><path d="M14,14 L908,14 L908,1065 L14,1065 L14,14 Z" /></clipPath>
<path d="M132,539 C136.8888855,757.666687 144.222229,867 154,867" style="fill:none;stroke:rgb(128,128,128)" clip-path="url(#clip14)" />
<clipPath id="clip15"><path d="M14,14 L908,14 L908,1065 L14,1065 L14,14 Z" /></clipPath>
<path d="M132,539 C136.8888855,792.333313 144.222229,919 154,919" style="fill:none;stroke:rgb(128,128,128)" clip-path="url(#clip15)" />
<clipPath id="clip16"><path d="M14,14 L908,14 L908,1065 L14,1065 L14,14 Z" /></clipPath>
<path d="M132,539 C136.8888855,824.333374 144.222229,967 154,967" style="fill:none;stroke:rgb(128,128,128)" clip-path="url(#clip16)" />
<clipPath id="clip17"><path d="M14,14 L908,14 L908,1065 L14,1065 L14,14 Z" /></clipPath>
<path d="M132,539 C136.8888855,856.333374 144.222229,1015 154,1015" style="fill:none;stroke:rgb(128,128,128)" clip-path="url(#clip17)" />
<clipPath id="clip18"><path d="M14,14 L908,14 L908,1065 L14,1065 L14,14 Z" /></clipPath>
<path d="M132,539 C136.8888855,888.333374 144.222229,1063 154,1063" style="fill:none;stroke:rgb(128,128,128)" clip-path="url(#clip18)" />
<clipPath id="clip19"><path d="M14,507 L123,507 L123,571 L14,571 L14,507 Z" /></clipPath>
<path d="M120,538.5 C120,522.2075806 96.718811,509 68,509 C39.2811928,509 16,522.2075806 16,538.5 C16,554.7924194 39.2811928,568 68,568 C96.718811,568 120,554.7924194 120,538.5 Z M120,538.5" style="fill:none;stroke:rgb(128,128,128)" clip-path="url(#clip19)" />
<text x="41" y="546" style="font:18px Dialog">Model</text>
<clipPath id="clip20"><path d="M152,14 L756,14 L756,61 L152,61 L152,14 Z" /></clipPath>
<path d="M200,55 L213,55" style="fill:none;stroke:rgb(128,128,128)" clip-path="url(#clip20)" />
<clipPath id="clip21"><path d="M152,14 L756,14 L756,61 L152,61 L152,14 Z" /></clipPath>
<path d="M213,55 C215,42.3333435 218,36 222,36" style="fill:none;stroke:rgb(128,128,128)" clip-path="url(#clip21)" />
<clipPath id="clip22"><path d="M152,14 L756,14 L756,61 L152,61 L152,14 Z" /></clipPath>
<path d="M213,55 C215,57.6666565 218,59 222,59" style="fill:none;stroke:rgb(128,128,128)" clip-path="url(#clip22)" />
<clipPath id="clip23"><path d="M152,17 L203,17 L203,57 L152,57 L152,17 Z" /></clipPath>
<path d="M154,55 L200,55" style="fill:none;stroke:rgb(128,128,128)" clip-path="url(#clip23)" />
<text x="161" y="44" style="font:18px Dialog">find</text>
<clipPath id="clip24"><path d="M201,31 L214,31 L214,44 L201,44 L201,31 Z" /></clipPath>
<path d="M211.5,37 C211.5,34.5147095 209.4852753,32.5 207,32.5 C204.5147247,32.5 202.5,34.5147095 202.5,37 C202.5,39.4852905 204.5147247,41.5 207,41.5 C209.4852753,41.5 211.5,39.4852905 211.5,37 Z M211.5,37" style="fill:rgb(210,230,255);stroke:none" clip-path="url(#clip24)" />
<clipPath id="clip25"><path d="M201,31 L214,31 L214,44 L201,44 L201,31 Z" /></clipPath>
<path d="M211.5,37 C211.5,34.5147095 209.4852753,32.5 207,32.5 C204.5147247,32.5 202.5,34.5147095 202.5,37 C202.5,39.4852905 204.5147247,41.5 207,41.5 C209.4852753,41.5 211.5,39.4852905 211.5,37 Z M211.5,37" style="fill:none;stroke:rgb(180,200,240)" clip-path="url(#clip25)" />
<clipPath id="clip26"><path d="M201,31 L214,31 L214,44 L201,44 L201,31 Z" /></clipPath>
<path d="M205,37 L209,37" style="fill:none;stroke:rgb(150,160,200)" clip-path="url(#clip26)" />
<clipPath id="clip27"><path d="M220,14 L696,14 L696,38 L220,38 L220,14 Z" /></clipPath>
<path d="M343,36 L356,36" style="fill:none;stroke:rgb(128,128,128)" clip-path="url(#clip27)" />
<clipPath id="clip28"><path d="M220,14 L696,14 L696,38 L220,38 L220,14 Z" /></clipPath>
<path d="M356,36 C358,36 361,36 365,36" style="fill:none;stroke:rgb(128,128,128)" clip-path="url(#clip28)" />
<clipPath id="clip29"><path d="M220,14 L346,14 L346,38 L220,38 L220,14 Z" /></clipPath>
<path d="M222,36 L343,36" style="fill:none;stroke:rgb(128,128,128)" clip-path="url(#clip29)" />
<text x="227" y="30" style="font:12px Dialog">( [ a =&gt; 1, b =&gt; 2 ] )</text>
<clipPath id="clip30"><path d="M344,20 L357,20 L357,33 L344,33 L344,20 Z" /></clipPath>
<path d="M354.5,26 C354.5,23.5147095 352.4852905,21.5 350,21.5 C347.5147095,21.5 345.5,23.5147095 345.5,26 C345.5,28.4852905 347.5147095,30.5 350,30.5 C352.4852905,30.5 354.5,28.4852905 354.5,26 Z M354.5,26" style="fill:rgb(210,230,255);stroke:none" clip-path="url(#clip30)" />
<clipPath id="clip31"><path d="M344,20 L357,20 L357,33 L344,33 L344,20 Z" /></clipPath>
<path d="M354.5,26 C354.5,23.5147095 352.4852905,21.5 350,21.5 C347.5147095,21.5 345.5,23.5147095 345.5,26 C345.5,28.4852905 347.5147095,30.5 350,30.5 C352.4852905,30.5 354.5,28.4852905 354.5,26 Z M354.5,26" style="fill:none;stroke:rgb(180,200,240)" clip-path="url(#clip31)" />
<clipPath id="clip32"><path d="M344,20 L357,20 L357,33 L344,33 L344,20 Z" /></clipPath>
<path d="M348,26 L352,26" style="fill:none;stroke:rgb(150,160,200)" clip-path="url(#clip32)" />
<clipPath id="clip33"><path d="M363,14 L696,14 L696,38 L363,38 L363,14 Z" /></clipPath>
<path d="M365,36 L693,36" style="fill:none;stroke:rgb(128,128,128)" clip-path="url(#clip33)" />
<text x="370" y="30" style="font:12px Dialog">传入条件数组，进行简单的条件处理，多个条件用 and 连接</text>
<clipPath id="clip34"><path d="M220,37 L756,37 L756,61 L220,61 L220,37 Z" /></clipPath>
<path d="M360,59 L373,59" style="fill:none;stroke:rgb(128,128,128)" clip-path="url(#clip34)" />
<clipPath id="clip35"><path d="M220,37 L756,37 L756,61 L220,61 L220,37 Z" /></clipPath>
<path d="M373,59 C375,58.3333435 378,58 382,58" style="fill:none;stroke:rgb(128,128,128)" clip-path="url(#clip35)" />
<clipPath id="clip36"><path d="M220,37 L363,37 L363,61 L220,61 L220,37 Z" /></clipPath>
<path d="M222,59 L360,59" style="fill:none;stroke:rgb(128,128,128)" clip-path="url(#clip36)" />
<text x="227" y="53" style="font:12px Dialog">( 'a=? and b=?', [1,2] )</text>
<clipPath id="clip37"><path d="M361,43 L374,43 L374,56 L361,56 L361,43 Z" /></clipPath>
<path d="M371.5,49 C371.5,46.5147095 369.4852905,44.5 367,44.5 C364.5147095,44.5 362.5,46.5147095 362.5,49 C362.5,51.4852905 364.5147095,53.5 367,53.5 C369.4852905,53.5 371.5,51.4852905 371.5,49 Z M371.5,49" style="fill:rgb(210,230,255);stroke:none" clip-path="url(#clip37)" />
<clipPath id="clip38"><path d="M361,43 L374,43 L374,56 L361,56 L361,43 Z" /></clipPath>
<path d="M371.5,49 C371.5,46.5147095 369.4852905,44.5 367,44.5 C364.5147095,44.5 362.5,46.5147095 362.5,49 C362.5,51.4852905 364.5147095,53.5 367,53.5 C369.4852905,53.5 371.5,51.4852905 371.5,49 Z M371.5,49" style="fill:none;stroke:rgb(180,200,240)" clip-path="url(#clip38)" />
<clipPath id="clip39"><path d="M361,43 L374,43 L374,56 L361,56 L361,43 Z" /></clipPath>
<path d="M365,49 L369,49" style="fill:none;stroke:rgb(150,160,200)" clip-path="url(#clip39)" />
<clipPath id="clip40"><path d="M380,39 L756,39 L756,60 L380,60 L380,39 Z" /></clipPath>
<path d="M382,58 L753,58" style="fill:none;stroke:rgb(128,128,128)" clip-path="url(#clip40)" />
<text x="387" y="55" style="font:12px Dialog">传入字符串形式的条件，第二个参数用数组指出每个条件中变量的值</text>
<clipPath id="clip41"><path d="M152,69 L714,69 L714,116 L152,116 L152,69 Z" /></clipPath>
<path d="M213,110 L226,110" style="fill:none;stroke:rgb(128,128,128)" clip-path="url(#clip41)" />
<clipPath id="clip42"><path d="M152,69 L714,69 L714,116 L152,116 L152,69 Z" /></clipPath>
<path d="M226,110 C228,97.3333435 231,91 235,91" style="fill:none;stroke:rgb(128,128,128)" clip-path="url(#clip42)" />
<clipPath id="clip43"><path d="M152,69 L714,69 L714,116 L152,116 L152,69 Z" /></clipPath>
<path d="M226,110 C228,112.6666565 231,114 235,114" style="fill:none;stroke:rgb(128,128,128)" clip-path="url(#clip43)" />
<clipPath id="clip44"><path d="M152,72 L216,72 L216,112 L152,112 L152,72 Z" /></clipPath>
<path d="M154,110 L213,110" style="fill:none;stroke:rgb(128,128,128)" clip-path="url(#clip44)" />
<text x="161" y="99" style="font:18px Dialog">order</text>
<clipPath id="clip45"><path d="M214,86 L227,86 L227,99 L214,99 L214,86 Z" /></clipPath>
<path d="M224.5,92 C224.5,89.5147095 222.4852753,87.5 220,87.5 C217.5147247,87.5 215.5,89.5147095 215.5,92 C215.5,94.4852905 217.5147247,96.5 220,96.5 C222.4852753,96.5 224.5,94.4852905 224.5,92 Z M224.5,92" style="fill:rgb(210,230,255);stroke:none" clip-path="url(#clip45)" />
<clipPath id="clip46"><path d="M214,86 L227,86 L227,99 L214,99 L214,86 Z" /></clipPath>
<path d="M224.5,92 C224.5,89.5147095 222.4852753,87.5 220,87.5 C217.5147247,87.5 215.5,89.5147095 215.5,92 C215.5,94.4852905 217.5147247,96.5 220,96.5 C222.4852753,96.5 224.5,94.4852905 224.5,92 Z M224.5,92" style="fill:none;stroke:rgb(180,200,240)" clip-path="url(#clip46)" />
<clipPath id="clip47"><path d="M214,86 L227,86 L227,99 L214,99 L214,86 Z" /></clipPath>
<path d="M218,92 L222,92" style="fill:none;stroke:rgb(150,160,200)" clip-path="url(#clip47)" />
<clipPath id="clip48"><path d="M233,69 L714,69 L714,93 L233,93 L233,69 Z" /></clipPath>
<path d="M343,91 L356,91" style="fill:none;stroke:rgb(128,128,128)" clip-path="url(#clip48)" />
<clipPath id="clip49"><path d="M233,69 L714,69 L714,93 L233,93 L233,69 Z" /></clipPath>
<path d="M356,91 C358,91 361,91 365,91" style="fill:none;stroke:rgb(128,128,128)" clip-path="url(#clip49)" />
<clipPath id="clip50"><path d="M233,69 L346,69 L346,93 L233,93 L233,69 Z" /></clipPath>
<path d="M235,91 L343,91" style="fill:none;stroke:rgb(128,128,128)" clip-path="url(#clip50)" />
<text x="240" y="85" style="font:12px Dialog">( [ 'a desc', 'b' ] )</text>
<clipPath id="clip51"><path d="M344,75 L357,75 L357,88 L344,88 L344,75 Z" /></clipPath>
<path d="M354.5,81 C354.5,78.5147095 352.4852905,76.5 350,76.5 C347.5147095,76.5 345.5,78.5147095 345.5,81 C345.5,83.4852905 347.5147095,85.5 350,85.5 C352.4852905,85.5 354.5,83.4852905 354.5,81 Z M354.5,81" style="fill:rgb(210,230,255);stroke:none" clip-path="url(#clip51)" />
<clipPath id="clip52"><path d="M344,75 L357,75 L357,88 L344,88 L344,75 Z" /></clipPath>
<path d="M354.5,81 C354.5,78.5147095 352.4852905,76.5 350,76.5 C347.5147095,76.5 345.5,78.5147095 345.5,81 C345.5,83.4852905 347.5147095,85.5 350,85.5 C352.4852905,85.5 354.5,83.4852905 354.5,81 Z M354.5,81" style="fill:none;stroke:rgb(180,200,240)" clip-path="url(#clip52)" />
<clipPath id="clip53"><path d="M344,75 L357,75 L357,88 L344,88 L344,75 Z" /></clipPath>
<path d="M348,81 L352,81" style="fill:none;stroke:rgb(150,160,200)" clip-path="url(#clip53)" />
<clipPath id="clip54"><path d="M363,69 L714,69 L714,93 L363,93 L363,69 Z" /></clipPath>
<path d="M365,91 L711,91" style="fill:none;stroke:rgb(128,128,128)" clip-path="url(#clip54)" />
<text x="370" y="85" style="font:12px Dialog">传入要排序的条件数组，每个条件后面可以加上 desc 或者 asc</text>
<clipPath id="clip55"><path d="M233,92 L648,92 L648,116 L233,116 L233,92 Z" /></clipPath>
<path d="M321,114 L334,114" style="fill:none;stroke:rgb(128,128,128)" clip-path="url(#clip55)" />
<clipPath id="clip56"><path d="M233,92 L648,92 L648,116 L233,116 L233,92 Z" /></clipPath>
<path d="M334,114 C336,114 339,114 343,114" style="fill:none;stroke:rgb(128,128,128)" clip-path="url(#clip56)" />
<clipPath id="clip57"><path d="M233,92 L324,92 L324,116 L233,116 L233,92 Z" /></clipPath>
<path d="M235,114 L321,114" style="fill:none;stroke:rgb(128,128,128)" clip-path="url(#clip57)" />
<text x="240" y="108" style="font:12px Dialog">( 'a desc, b' )</text>
<clipPath id="clip58"><path d="M322,98 L335,98 L335,111 L322,111 L322,98 Z" /></clipPath>
<path d="M332.5,104 C332.5,101.5147095 330.4852905,99.5 328,99.5 C325.5147095,99.5 323.5,101.5147095 323.5,104 C323.5,106.4852905 325.5147095,108.5 328,108.5 C330.4852905,108.5 332.5,106.4852905 332.5,104 Z M332.5,104" style="fill:rgb(210,230,255);stroke:none" clip-path="url(#clip58)" />
<clipPath id="clip59"><path d="M322,98 L335,98 L335,111 L322,111 L322,98 Z" /></clipPath>
<path d="M332.5,104 C332.5,101.5147095 330.4852905,99.5 328,99.5 C325.5147095,99.5 323.5,101.5147095 323.5,104 C323.5,106.4852905 325.5147095,108.5 328,108.5 C330.4852905,108.5 332.5,106.4852905 332.5,104 Z M332.5,104" style="fill:none;stroke:rgb(180,200,240)" clip-path="url(#clip59)" />
<clipPath id="clip60"><path d="M322,98 L335,98 L335,111 L322,111 L322,98 Z" /></clipPath>
<path d="M326,104 L330,104" style="fill:none;stroke:rgb(150,160,200)" clip-path="url(#clip60)" />
<clipPath id="clip61"><path d="M341,92 L648,92 L648,116 L341,116 L341,92 Z" /></clipPath>
<path d="M343,114 L645,114" style="fill:none;stroke:rgb(128,128,128)" clip-path="url(#clip61)" />
<text x="348" y="108" style="font:12px Dialog">传入一个逗号隔开的条件字符串，与 Sql 中的语法一致</text>
<clipPath id="clip62"><path d="M152,124 L633,124 L633,171 L152,171 L152,124 Z" /></clipPath>
<path d="M217,165 L230,165" style="fill:none;stroke:rgb(128,128,128)" clip-path="url(#clip62)" />
<clipPath id="clip63"><path d="M152,124 L633,124 L633,171 L152,171 L152,124 Z" /></clipPath>
<path d="M230,165 C232,152.3333435 235,146 239,146" style="fill:none;stroke:rgb(128,128,128)" clip-path="url(#clip63)" />
<clipPath id="clip64"><path d="M152,124 L633,124 L633,171 L152,171 L152,124 Z" /></clipPath>
<path d="M230,165 C232,167.6666565 235,169 239,169" style="fill:none;stroke:rgb(128,128,128)" clip-path="url(#clip64)" />
<clipPath id="clip65"><path d="M152,127 L220,127 L220,167 L152,167 L152,127 Z" /></clipPath>
<path d="M154,165 L217,165" style="fill:none;stroke:rgb(128,128,128)" clip-path="url(#clip65)" />
<text x="161" y="154" style="font:18px Dialog">group</text>
<clipPath id="clip66"><path d="M218,141 L231,141 L231,154 L218,154 L218,141 Z" /></clipPath>
<path d="M228.5,147 C228.5,144.5147095 226.4852753,142.5 224,142.5 C221.5147247,142.5 219.5,144.5147095 219.5,147 C219.5,149.4852905 221.5147247,151.5 224,151.5 C226.4852753,151.5 228.5,149.4852905 228.5,147 Z M228.5,147" style="fill:rgb(210,230,255);stroke:none" clip-path="url(#clip66)" />
<clipPath id="clip67"><path d="M218,141 L231,141 L231,154 L218,154 L218,141 Z" /></clipPath>
<path d="M228.5,147 C228.5,144.5147095 226.4852753,142.5 224,142.5 C221.5147247,142.5 219.5,144.5147095 219.5,147 C219.5,149.4852905 221.5147247,151.5 224,151.5 C226.4852753,151.5 228.5,149.4852905 228.5,147 Z M228.5,147" style="fill:none;stroke:rgb(180,200,240)" clip-path="url(#clip67)" />
<clipPath id="clip68"><path d="M218,141 L231,141 L231,154 L218,154 L218,141 Z" /></clipPath>
<path d="M222,147 L226,147" style="fill:none;stroke:rgb(150,160,200)" clip-path="url(#clip68)" />
<clipPath id="clip69"><path d="M237,124 L471,124 L471,148 L237,148 L237,124 Z" /></clipPath>
<path d="M315,146 L328,146" style="fill:none;stroke:rgb(128,128,128)" clip-path="url(#clip69)" />
<clipPath id="clip70"><path d="M237,124 L471,124 L471,148 L237,148 L237,124 Z" /></clipPath>
<path d="M328,146 C330,145.3333435 333,145 337,145" style="fill:none;stroke:rgb(128,128,128)" clip-path="url(#clip70)" />
<clipPath id="clip71"><path d="M237,124 L318,124 L318,148 L237,148 L237,124 Z" /></clipPath>
<path d="M239,146 L315,146" style="fill:none;stroke:rgb(128,128,128)" clip-path="url(#clip71)" />
<text x="244" y="140" style="font:12px Dialog">( [ 'a', 'b' ] )</text>
<clipPath id="clip72"><path d="M316,130 L329,130 L329,143 L316,143 L316,130 Z" /></clipPath>
<path d="M326.5,136 C326.5,133.5147095 324.4852905,131.5 322,131.5 C319.5147095,131.5 317.5,133.5147095 317.5,136 C317.5,138.4852905 319.5147095,140.5 322,140.5 C324.4852905,140.5 326.5,138.4852905 326.5,136 Z M326.5,136" style="fill:rgb(210,230,255);stroke:none" clip-path="url(#clip72)" />
<clipPath id="clip73"><path d="M316,130 L329,130 L329,143 L316,143 L316,130 Z" /></clipPath>
<path d="M326.5,136 C326.5,133.5147095 324.4852905,131.5 322,131.5 C319.5147095,131.5 317.5,133.5147095 317.5,136 C317.5,138.4852905 319.5147095,140.5 322,140.5 C324.4852905,140.5 326.5,138.4852905 326.5,136 Z M326.5,136" style="fill:none;stroke:rgb(180,200,240)" clip-path="url(#clip73)" />
<clipPath id="clip74"><path d="M316,130 L329,130 L329,143 L316,143 L316,130 Z" /></clipPath>
<path d="M320,136 L324,136" style="fill:none;stroke:rgb(150,160,200)" clip-path="url(#clip74)" />
<clipPath id="clip75"><path d="M335,126 L471,126 L471,147 L335,147 L335,126 Z" /></clipPath>
<path d="M337,145 L468,145" style="fill:none;stroke:rgb(128,128,128)" clip-path="url(#clip75)" />
<text x="342" y="142" style="font:12px Dialog">传入要分组的字段数组</text>
<clipPath id="clip76"><path d="M237,147 L633,147 L633,171 L237,171 L237,147 Z" /></clipPath>
<path d="M294,169 L307,169" style="fill:none;stroke:rgb(128,128,128)" clip-path="url(#clip76)" />
<clipPath id="clip77"><path d="M237,147 L633,147 L633,171 L237,171 L237,147 Z" /></clipPath>
<path d="M307,169 C309,169 312,169 316,169" style="fill:none;stroke:rgb(128,128,128)" clip-path="url(#clip77)" />
<clipPath id="clip78"><path d="M237,147 L297,147 L297,171 L237,171 L237,147 Z" /></clipPath>
<path d="M239,169 L294,169" style="fill:none;stroke:rgb(128,128,128)" clip-path="url(#clip78)" />
<text x="244" y="163" style="font:12px Dialog">( 'a, b' )</text>
<clipPath id="clip79"><path d="M295,153 L308,153 L308,166 L295,166 L295,153 Z" /></clipPath>
<path d="M305.5,159 C305.5,156.5147095 303.4852905,154.5 301,154.5 C298.5147095,154.5 296.5,156.5147095 296.5,159 C296.5,161.4852905 298.5147095,163.5 301,163.5 C303.4852905,163.5 305.5,161.4852905 305.5,159 Z M305.5,159" style="fill:rgb(210,230,255);stroke:none" clip-path="url(#clip79)" />
<clipPath id="clip80"><path d="M295,153 L308,153 L308,166 L295,166 L295,153 Z" /></clipPath>
<path d="M305.5,159 C305.5,156.5147095 303.4852905,154.5 301,154.5 C298.5147095,154.5 296.5,156.5147095 296.5,159 C296.5,161.4852905 298.5147095,163.5 301,163.5 C303.4852905,163.5 305.5,161.4852905 305.5,159 Z M305.5,159" style="fill:none;stroke:rgb(180,200,240)" clip-path="url(#clip80)" />
<clipPath id="clip81"><path d="M295,153 L308,153 L308,166 L295,166 L295,153 Z" /></clipPath>
<path d="M299,159 L303,159" style="fill:none;stroke:rgb(150,160,200)" clip-path="url(#clip81)" />
<clipPath id="clip82"><path d="M314,147 L633,147 L633,171 L314,171 L314,147 Z" /></clipPath>
<path d="M316,169 L630,169" style="fill:none;stroke:rgb(128,128,128)" clip-path="url(#clip82)" />
<text x="321" y="163" style="font:12px Dialog">传入一个逗号隔开分组字段字符串，与 Sql 中的语法一致</text>
<clipPath id="clip83"><path d="M152,179 L645,179 L645,272 L152,272 L152,179 Z" /></clipPath>
<path d="M200,243 L213,243" style="fill:none;stroke:rgb(128,128,128)" clip-path="url(#clip83)" />
<clipPath id="clip84"><path d="M152,179 L645,179 L645,272 L152,272 L152,179 Z" /></clipPath>
<path d="M213,243 C215,215 218,201 222,201" style="fill:none;stroke:rgb(128,128,128)" clip-path="url(#clip84)" />
<clipPath id="clip85"><path d="M152,179 L645,179 L645,272 L152,272 L152,179 Z" /></clipPath>
<path d="M213,243 C215,230.3333435 218,224 222,224" style="fill:none;stroke:rgb(128,128,128)" clip-path="url(#clip85)" />
<clipPath id="clip86"><path d="M152,179 L645,179 L645,272 L152,272 L152,179 Z" /></clipPath>
<path d="M213,243 C215,245.6666565 218,247 222,247" style="fill:none;stroke:rgb(128,128,128)" clip-path="url(#clip86)" />
<clipPath id="clip87"><path d="M152,179 L645,179 L645,272 L152,272 L152,179 Z" /></clipPath>
<path d="M213,243 C215,261 218,270 222,270" style="fill:none;stroke:rgb(128,128,128)" clip-path="url(#clip87)" />
<clipPath id="clip88"><path d="M152,205 L203,205 L203,245 L152,245 L152,205 Z" /></clipPath>
<path d="M154,243 L200,243" style="fill:none;stroke:rgb(128,128,128)" clip-path="url(#clip88)" />
<text x="161" y="232" style="font:18px Dialog">first</text>
<clipPath id="clip89"><path d="M201,219 L214,219 L214,232 L201,232 L201,219 Z" /></clipPath>
<path d="M211.5,225 C211.5,222.5147095 209.4852753,220.5 207,220.5 C204.5147247,220.5 202.5,222.5147095 202.5,225 C202.5,227.4852905 204.5147247,229.5 207,229.5 C209.4852753,229.5 211.5,227.4852905 211.5,225 Z M211.5,225" style="fill:rgb(210,230,255);stroke:none" clip-path="url(#clip89)" />
<clipPath id="clip90"><path d="M201,219 L214,219 L214,232 L201,232 L201,219 Z" /></clipPath>
<path d="M211.5,225 C211.5,222.5147095 209.4852753,220.5 207,220.5 C204.5147247,220.5 202.5,222.5147095 202.5,225 C202.5,227.4852905 204.5147247,229.5 207,229.5 C209.4852753,229.5 211.5,227.4852905 211.5,225 Z M211.5,225" style="fill:none;stroke:rgb(180,200,240)" clip-path="url(#clip90)" />
<clipPath id="clip91"><path d="M201,219 L214,219 L214,232 L201,232 L201,219 Z" /></clipPath>
<path d="M205,225 L209,225" style="fill:none;stroke:rgb(150,160,200)" clip-path="url(#clip91)" />
<clipPath id="clip92"><path d="M220,179 L444,179 L444,203 L220,203 L220,179 Z" /></clipPath>
<path d="M240,201 L253,201" style="fill:none;stroke:rgb(128,128,128)" clip-path="url(#clip92)" />
<clipPath id="clip93"><path d="M220,179 L444,179 L444,203 L220,203 L220,179 Z" /></clipPath>
<path d="M253,201 C255,200.3333435 258,200 262,200" style="fill:none;stroke:rgb(128,128,128)" clip-path="url(#clip93)" />
<clipPath id="clip94"><path d="M220,179 L243,179 L243,203 L220,203 L220,179 Z" /></clipPath>
<path d="M222,201 L240,201" style="fill:none;stroke:rgb(128,128,128)" clip-path="url(#clip94)" />
<text x="227" y="195" style="font:12px Dialog">()</text>
<clipPath id="clip95"><path d="M241,185 L254,185 L254,198 L241,198 L241,185 Z" /></clipPath>
<path d="M251.5,191 C251.5,188.5147095 249.4852753,186.5 247,186.5 C244.5147247,186.5 242.5,188.5147095 242.5,191 C242.5,193.4852905 244.5147247,195.5 247,195.5 C249.4852753,195.5 251.5,193.4852905 251.5,191 Z M251.5,191" style="fill:rgb(210,230,255);stroke:none" clip-path="url(#clip95)" />
<clipPath id="clip96"><path d="M241,185 L254,185 L254,198 L241,198 L241,185 Z" /></clipPath>
<path d="M251.5,191 C251.5,188.5147095 249.4852753,186.5 247,186.5 C244.5147247,186.5 242.5,188.5147095 242.5,191 C242.5,193.4852905 244.5147247,195.5 247,195.5 C249.4852753,195.5 251.5,193.4852905 251.5,191 Z M251.5,191" style="fill:none;stroke:rgb(180,200,240)" clip-path="url(#clip96)" />
<clipPath id="clip97"><path d="M241,185 L254,185 L254,198 L241,198 L241,185 Z" /></clipPath>
<path d="M245,191 L249,191" style="fill:none;stroke:rgb(150,160,200)" clip-path="url(#clip97)" />
<clipPath id="clip98"><path d="M260,181 L444,181 L444,202 L260,202 L260,181 Z" /></clipPath>
<path d="M262,200 L441,200" style="fill:none;stroke:rgb(128,128,128)" clip-path="url(#clip98)" />
<text x="267" y="197" style="font:12px Dialog">取结果的第一条数据的所有字段</text>
<clipPath id="clip99"><path d="M220,202 L487,202 L487,226 L220,226 L220,202 Z" /></clipPath>
<path d="M273,224 L286,224" style="fill:none;stroke:rgb(128,128,128)" clip-path="url(#clip99)" />
<clipPath id="clip100"><path d="M220,202 L487,202 L487,226 L220,226 L220,202 Z" /></clipPath>
<path d="M286,224 C288,224 291,224 295,224" style="fill:none;stroke:rgb(128,128,128)" clip-path="url(#clip100)" />
<clipPath id="clip101"><path d="M220,202 L276,202 L276,226 L220,226 L220,202 Z" /></clipPath>
<path d="M222,224 L273,224" style="fill:none;stroke:rgb(128,128,128)" clip-path="url(#clip101)" />
<text x="227" y="218" style="font:12px Dialog">( 'a,b' )</text>
<clipPath id="clip102"><path d="M274,208 L287,208 L287,221 L274,221 L274,208 Z" /></clipPath>
<path d="M284.5,214 C284.5,211.5147095 282.4852905,209.5 280,209.5 C277.5147095,209.5 275.5,211.5147095 275.5,214 C275.5,216.4852905 277.5147095,218.5 280,218.5 C282.4852905,218.5 284.5,216.4852905 284.5,214 Z M284.5,214" style="fill:rgb(210,230,255);stroke:none" clip-path="url(#clip102)" />
<clipPath id="clip103"><path d="M274,208 L287,208 L287,221 L274,221 L274,208 Z" /></clipPath>
<path d="M284.5,214 C284.5,211.5147095 282.4852905,209.5 280,209.5 C277.5147095,209.5 275.5,211.5147095 275.5,214 C275.5,216.4852905 277.5147095,218.5 280,218.5 C282.4852905,218.5 284.5,216.4852905 284.5,214 Z M284.5,214" style="fill:none;stroke:rgb(180,200,240)" clip-path="url(#clip103)" />
<clipPath id="clip104"><path d="M274,208 L287,208 L287,221 L274,221 L274,208 Z" /></clipPath>
<path d="M278,214 L282,214" style="fill:none;stroke:rgb(150,160,200)" clip-path="url(#clip104)" />
<clipPath id="clip105"><path d="M293,202 L487,202 L487,226 L293,226 L293,202 Z" /></clipPath>
<path d="M295,224 L484,224" style="fill:none;stroke:rgb(128,128,128)" clip-path="url(#clip105)" />
<text x="300" y="218" style="font:12px Dialog">取结果的第一条数据的 a、b 字段</text>
<clipPath id="clip106"><path d="M220,225 L645,225 L645,249 L220,249 L220,225 Z" /></clipPath>
<path d="M292,247 L305,247" style="fill:none;stroke:rgb(128,128,128)" clip-path="url(#clip106)" />
<clipPath id="clip107"><path d="M220,225 L645,225 L645,249 L220,249 L220,225 Z" /></clipPath>
<path d="M305,247 C307,247 310,247 314,247" style="fill:none;stroke:rgb(128,128,128)" clip-path="url(#clip107)" />
<clipPath id="clip108"><path d="M220,225 L295,225 L295,249 L220,249 L220,225 Z" /></clipPath>
<path d="M222,247 L292,247" style="fill:none;stroke:rgb(128,128,128)" clip-path="url(#clip108)" />
<text x="227" y="241" style="font:12px Dialog">( 'a', true )</text>
<clipPath id="clip109"><path d="M293,231 L306,231 L306,244 L293,244 L293,231 Z" /></clipPath>
<path d="M303.5,237 C303.5,234.5147095 301.4852905,232.5 299,232.5 C296.5147095,232.5 294.5,234.5147095 294.5,237 C294.5,239.4852905 296.5147095,241.5 299,241.5 C301.4852905,241.5 303.5,239.4852905 303.5,237 Z M303.5,237" style="fill:rgb(210,230,255);stroke:none" clip-path="url(#clip109)" />
<clipPath id="clip110"><path d="M293,231 L306,231 L306,244 L293,244 L293,231 Z" /></clipPath>
<path d="M303.5,237 C303.5,234.5147095 301.4852905,232.5 299,232.5 C296.5147095,232.5 294.5,234.5147095 294.5,237 C294.5,239.4852905 296.5147095,241.5 299,241.5 C301.4852905,241.5 303.5,239.4852905 303.5,237 Z M303.5,237" style="fill:none;stroke:rgb(180,200,240)" clip-path="url(#clip110)" />
<clipPath id="clip111"><path d="M293,231 L306,231 L306,244 L293,244 L293,231 Z" /></clipPath>
<path d="M297,237 L301,237" style="fill:none;stroke:rgb(150,160,200)" clip-path="url(#clip111)" />
<clipPath id="clip112"><path d="M312,225 L645,225 L645,249 L312,249 L312,225 Z" /></clipPath>
<path d="M314,247 L642,247" style="fill:none;stroke:rgb(128,128,128)" clip-path="url(#clip112)" />
<text x="319" y="241" style="font:12px Dialog">取结果的第一条数据的 a 字段，并且直接返回 a 字段的内容</text>
<clipPath id="clip113"><path d="M220,248 L385,248 L385,272 L220,272 L220,248 Z" /></clipPath>
<path d="M222,270 L382,270" style="fill:none;stroke:rgb(128,128,128)" clip-path="url(#clip113)" />
<text x="227" y="264" style="font:12px Dialog">之前必须调用 find 或 query</text>
<clipPath id="clip114"><path d="M152,280 L712,280 L712,396 L152,396 L152,280 Z" /></clipPath>
<path d="M187,356 L200,356" style="fill:none;stroke:rgb(128,128,128)" clip-path="url(#clip114)" />
<clipPath id="clip115"><path d="M152,280 L712,280 L712,396 L152,396 L152,280 Z" /></clipPath>
<path d="M200,356 C202,320 205,302 209,302" style="fill:none;stroke:rgb(128,128,128)" clip-path="url(#clip115)" />
<clipPath id="clip116"><path d="M152,280 L712,280 L712,396 L152,396 L152,280 Z" /></clipPath>
<path d="M200,356 C202,335.333313 205,325 209,325" style="fill:none;stroke:rgb(128,128,128)" clip-path="url(#clip116)" />
<clipPath id="clip117"><path d="M152,280 L712,280 L712,396 L152,396 L152,280 Z" /></clipPath>
<path d="M200,356 C202,350.666687 205,348 209,348" style="fill:none;stroke:rgb(128,128,128)" clip-path="url(#clip117)" />
<clipPath id="clip118"><path d="M152,280 L712,280 L712,396 L152,396 L152,280 Z" /></clipPath>
<path d="M200,356 C202,366 205,371 209,371" style="fill:none;stroke:rgb(128,128,128)" clip-path="url(#clip118)" />
<clipPath id="clip119"><path d="M152,280 L712,280 L712,396 L152,396 L152,280 Z" /></clipPath>
<path d="M200,356 C202,381.333313 205,394 209,394" style="fill:none;stroke:rgb(128,128,128)" clip-path="url(#clip119)" />
<clipPath id="clip120"><path d="M152,318 L190,318 L190,358 L152,358 L152,318 Z" /></clipPath>
<path d="M154,356 L187,356" style="fill:none;stroke:rgb(128,128,128)" clip-path="url(#clip120)" />
<text x="161" y="345" style="font:18px Dialog">all</text>
<clipPath id="clip121"><path d="M188,332 L201,332 L201,345 L188,345 L188,332 Z" /></clipPath>
<path d="M198.5,338 C198.5,335.5147095 196.4852753,333.5 194,333.5 C191.5147095,333.5 189.5,335.5147095 189.5,338 C189.5,340.4852905 191.5147095,342.5 194,342.5 C196.4852753,342.5 198.5,340.4852905 198.5,338 Z M198.5,338" style="fill:rgb(210,230,255);stroke:none" clip-path="url(#clip121)" />
<clipPath id="clip122"><path d="M188,332 L201,332 L201,345 L188,345 L188,332 Z" /></clipPath>
<path d="M198.5,338 C198.5,335.5147095 196.4852753,333.5 194,333.5 C191.5147095,333.5 189.5,335.5147095 189.5,338 C189.5,340.4852905 191.5147095,342.5 194,342.5 C196.4852753,342.5 198.5,340.4852905 198.5,338 Z M198.5,338" style="fill:none;stroke:rgb(180,200,240)" clip-path="url(#clip122)" />
<clipPath id="clip123"><path d="M188,332 L201,332 L201,345 L188,345 L188,332 Z" /></clipPath>
<path d="M192,338 L196,338" style="fill:none;stroke:rgb(150,160,200)" clip-path="url(#clip123)" />
<clipPath id="clip124"><path d="M207,280 L407,280 L407,304 L207,304 L207,280 Z" /></clipPath>
<path d="M227,302 L240,302" style="fill:none;stroke:rgb(128,128,128)" clip-path="url(#clip124)" />
<clipPath id="clip125"><path d="M207,280 L407,280 L407,304 L207,304 L207,280 Z" /></clipPath>
<path d="M240,302 C242,301.333313 245,301 249,301" style="fill:none;stroke:rgb(128,128,128)" clip-path="url(#clip125)" />
<clipPath id="clip126"><path d="M207,280 L230,280 L230,304 L207,304 L207,280 Z" /></clipPath>
<path d="M209,302 L227,302" style="fill:none;stroke:rgb(128,128,128)" clip-path="url(#clip126)" />
<text x="214" y="296" style="font:12px Dialog">()</text>
<clipPath id="clip127"><path d="M228,286 L241,286 L241,299 L228,299 L228,286 Z" /></clipPath>
<path d="M238.5,292 C238.5,289.5147095 236.4852753,287.5 234,287.5 C231.5147247,287.5 229.5,289.5147095 229.5,292 C229.5,294.4852905 231.5147247,296.5 234,296.5 C236.4852753,296.5 238.5,294.4852905 238.5,292 Z M238.5,292" style="fill:rgb(210,230,255);stroke:none" clip-path="url(#clip127)" />
<clipPath id="clip128"><path d="M228,286 L241,286 L241,299 L228,299 L228,286 Z" /></clipPath>
<path d="M238.5,292 C238.5,289.5147095 236.4852753,287.5 234,287.5 C231.5147247,287.5 229.5,289.5147095 229.5,292 C229.5,294.4852905 231.5147247,296.5 234,296.5 C236.4852753,296.5 238.5,294.4852905 238.5,292 Z M238.5,292" style="fill:none;stroke:rgb(180,200,240)" clip-path="url(#clip128)" />
<clipPath id="clip129"><path d="M228,286 L241,286 L241,299 L228,299 L228,286 Z" /></clipPath>
<path d="M232,292 L236,292" style="fill:none;stroke:rgb(150,160,200)" clip-path="url(#clip129)" />
<clipPath id="clip130"><path d="M247,282 L407,282 L407,303 L247,303 L247,282 Z" /></clipPath>
<path d="M249,301 L404,301" style="fill:none;stroke:rgb(128,128,128)" clip-path="url(#clip130)" />
<text x="254" y="298" style="font:12px Dialog">取结果所有数据的所有字段</text>
<clipPath id="clip131"><path d="M207,303 L450,303 L450,327 L207,327 L207,303 Z" /></clipPath>
<path d="M260,325 L273,325" style="fill:none;stroke:rgb(128,128,128)" clip-path="url(#clip131)" />
<clipPath id="clip132"><path d="M207,303 L450,303 L450,327 L207,327 L207,303 Z" /></clipPath>
<path d="M273,325 C275,325 278,325 282,325" style="fill:none;stroke:rgb(128,128,128)" clip-path="url(#clip132)" />
<clipPath id="clip133"><path d="M207,303 L263,303 L263,327 L207,327 L207,303 Z" /></clipPath>
<path d="M209,325 L260,325" style="fill:none;stroke:rgb(128,128,128)" clip-path="url(#clip133)" />
<text x="214" y="319" style="font:12px Dialog">( 'a,b' )</text>
<clipPath id="clip134"><path d="M261,309 L274,309 L274,322 L261,322 L261,309 Z" /></clipPath>
<path d="M271.5,315 C271.5,312.5147095 269.4852905,310.5 267,310.5 C264.5147095,310.5 262.5,312.5147095 262.5,315 C262.5,317.4852905 264.5147095,319.5 267,319.5 C269.4852905,319.5 271.5,317.4852905 271.5,315 Z M271.5,315" style="fill:rgb(210,230,255);stroke:none" clip-path="url(#clip134)" />
<clipPath id="clip135"><path d="M261,309 L274,309 L274,322 L261,322 L261,309 Z" /></clipPath>
<path d="M271.5,315 C271.5,312.5147095 269.4852905,310.5 267,310.5 C264.5147095,310.5 262.5,312.5147095 262.5,315 C262.5,317.4852905 264.5147095,319.5 267,319.5 C269.4852905,319.5 271.5,317.4852905 271.5,315 Z M271.5,315" style="fill:none;stroke:rgb(180,200,240)" clip-path="url(#clip135)" />
<clipPath id="clip136"><path d="M261,309 L274,309 L274,322 L261,322 L261,309 Z" /></clipPath>
<path d="M265,315 L269,315" style="fill:none;stroke:rgb(150,160,200)" clip-path="url(#clip136)" />
<clipPath id="clip137"><path d="M280,303 L450,303 L450,327 L280,327 L280,303 Z" /></clipPath>
<path d="M282,325 L447,325" style="fill:none;stroke:rgb(128,128,128)" clip-path="url(#clip137)" />
<text x="287" y="319" style="font:12px Dialog">取结果所有数据的 a、b 字段</text>
<clipPath id="clip138"><path d="M207,326 L712,326 L712,350 L207,350 L207,326 Z" /></clipPath>
<path d="M294,348 L307,348" style="fill:none;stroke:rgb(128,128,128)" clip-path="url(#clip138)" />
<clipPath id="clip139"><path d="M207,326 L712,326 L712,350 L207,350 L207,326 Z" /></clipPath>
<path d="M307,348 C309,348 312,348 316,348" style="fill:none;stroke:rgb(128,128,128)" clip-path="url(#clip139)" />
<clipPath id="clip140"><path d="M207,326 L297,326 L297,350 L207,350 L207,326 Z" /></clipPath>
<path d="M209,348 L294,348" style="fill:none;stroke:rgb(128,128,128)" clip-path="url(#clip140)" />
<text x="214" y="342" style="font:12px Dialog">( 'a, b', true )</text>
<clipPath id="clip141"><path d="M295,332 L308,332 L308,345 L295,345 L295,332 Z" /></clipPath>
<path d="M305.5,338 C305.5,335.5147095 303.4852905,333.5 301,333.5 C298.5147095,333.5 296.5,335.5147095 296.5,338 C296.5,340.4852905 298.5147095,342.5 301,342.5 C303.4852905,342.5 305.5,340.4852905 305.5,338 Z M305.5,338" style="fill:rgb(210,230,255);stroke:none" clip-path="url(#clip141)" />
<clipPath id="clip142"><path d="M295,332 L308,332 L308,345 L295,345 L295,332 Z" /></clipPath>
<path d="M305.5,338 C305.5,335.5147095 303.4852905,333.5 301,333.5 C298.5147095,333.5 296.5,335.5147095 296.5,338 C296.5,340.4852905 298.5147095,342.5 301,342.5 C303.4852905,342.5 305.5,340.4852905 305.5,338 Z M305.5,338" style="fill:none;stroke:rgb(180,200,240)" clip-path="url(#clip142)" />
<clipPath id="clip143"><path d="M295,332 L308,332 L308,345 L295,345 L295,332 Z" /></clipPath>
<path d="M299,338 L303,338" style="fill:none;stroke:rgb(150,160,200)" clip-path="url(#clip143)" />
<clipPath id="clip144"><path d="M314,326 L712,326 L712,350 L314,350 L314,326 Z" /></clipPath>
<path d="M316,348 L709,348" style="fill:none;stroke:rgb(128,128,128)" clip-path="url(#clip144)" />
<text x="321" y="342" style="font:12px Dialog">取结果所有数据的 a、b 字段，并且以索引数组方式返回每条记录的数据</text>
<clipPath id="clip145"><path d="M207,349 L662,349 L662,373 L207,373 L207,349 Z" /></clipPath>
<path d="M309,371 L322,371" style="fill:none;stroke:rgb(128,128,128)" clip-path="url(#clip145)" />
<clipPath id="clip146"><path d="M207,349 L662,349 L662,373 L207,373 L207,349 Z" /></clipPath>
<path d="M322,371 C324,371 327,371 331,371" style="fill:none;stroke:rgb(128,128,128)" clip-path="url(#clip146)" />
<clipPath id="clip147"><path d="M207,349 L312,349 L312,373 L207,373 L207,349 Z" /></clipPath>
<path d="M209,371 L309,371" style="fill:none;stroke:rgb(128,128,128)" clip-path="url(#clip147)" />
<text x="214" y="365" style="font:12px Dialog">( 'a', true, true )</text>
<clipPath id="clip148"><path d="M310,355 L323,355 L323,368 L310,368 L310,355 Z" /></clipPath>
<path d="M320.5,361 C320.5,358.5147095 318.4852905,356.5 316,356.5 C313.5147095,356.5 311.5,358.5147095 311.5,361 C311.5,363.4852905 313.5147095,365.5 316,365.5 C318.4852905,365.5 320.5,363.4852905 320.5,361 Z M320.5,361" style="fill:rgb(210,230,255);stroke:none" clip-path="url(#clip148)" />
<clipPath id="clip149"><path d="M310,355 L323,355 L323,368 L310,368 L310,355 Z" /></clipPath>
<path d="M320.5,361 C320.5,358.5147095 318.4852905,356.5 316,356.5 C313.5147095,356.5 311.5,358.5147095 311.5,361 C311.5,363.4852905 313.5147095,365.5 316,365.5 C318.4852905,365.5 320.5,363.4852905 320.5,361 Z M320.5,361" style="fill:none;stroke:rgb(180,200,240)" clip-path="url(#clip149)" />
<clipPath id="clip150"><path d="M310,355 L323,355 L323,368 L310,368 L310,355 Z" /></clipPath>
<path d="M314,361 L318,361" style="fill:none;stroke:rgb(150,160,200)" clip-path="url(#clip150)" />
<clipPath id="clip151"><path d="M329,349 L662,349 L662,373 L329,373 L329,349 Z" /></clipPath>
<path d="M331,371 L659,371" style="fill:none;stroke:rgb(128,128,128)" clip-path="url(#clip151)" />
<text x="336" y="365" style="font:12px Dialog">取结果所有数据的 a 字段，并且每条直接返回 a 字段的内容</text>
<clipPath id="clip152"><path d="M207,372 L372,372 L372,396 L207,396 L207,372 Z" /></clipPath>
<path d="M209,394 L369,394" style="fill:none;stroke:rgb(128,128,128)" clip-path="url(#clip152)" />
<text x="214" y="388" style="font:12px Dialog">之前必须调用 find 或 query</text>
<clipPath id="clip153"><path d="M152,404 L777,404 L777,474 L152,474 L152,404 Z" /></clipPath>
<path d="M188,457 L201,457" style="fill:none;stroke:rgb(128,128,128)" clip-path="url(#clip153)" />
<clipPath id="clip154"><path d="M152,404 L777,404 L777,474 L152,474 L152,404 Z" /></clipPath>
<path d="M201,457 C203,436.3333435 206,426 210,426" style="fill:none;stroke:rgb(128,128,128)" clip-path="url(#clip154)" />
<clipPath id="clip155"><path d="M152,404 L777,404 L777,474 L152,474 L152,404 Z" /></clipPath>
<path d="M201,457 C203,451.6666565 206,449 210,449" style="fill:none;stroke:rgb(128,128,128)" clip-path="url(#clip155)" />
<clipPath id="clip156"><path d="M152,404 L777,404 L777,474 L152,474 L152,404 Z" /></clipPath>
<path d="M201,457 C203,467 206,472 210,472" style="fill:none;stroke:rgb(128,128,128)" clip-path="url(#clip156)" />
<clipPath id="clip157"><path d="M152,419 L191,419 L191,459 L152,459 L152,419 Z" /></clipPath>
<path d="M154,457 L188,457" style="fill:none;stroke:rgb(128,128,128)" clip-path="url(#clip157)" />
<text x="161" y="446" style="font:18px Dialog">kv</text>
<clipPath id="clip158"><path d="M189,433 L202,433 L202,446 L189,446 L189,433 Z" /></clipPath>
<path d="M199.5,439 C199.5,436.5147095 197.4852753,434.5 195,434.5 C192.5147095,434.5 190.5,436.5147095 190.5,439 C190.5,441.4852905 192.5147095,443.5 195,443.5 C197.4852753,443.5 199.5,441.4852905 199.5,439 Z M199.5,439" style="fill:rgb(210,230,255);stroke:none" clip-path="url(#clip158)" />
<clipPath id="clip159"><path d="M189,433 L202,433 L202,446 L189,446 L189,433 Z" /></clipPath>
<path d="M199.5,439 C199.5,436.5147095 197.4852753,434.5 195,434.5 C192.5147095,434.5 190.5,436.5147095 190.5,439 C190.5,441.4852905 192.5147095,443.5 195,443.5 C197.4852753,443.5 199.5,441.4852905 199.5,439 Z M199.5,439" style="fill:none;stroke:rgb(180,200,240)" clip-path="url(#clip159)" />
<clipPath id="clip160"><path d="M189,433 L202,433 L202,446 L189,446 L189,433 Z" /></clipPath>
<path d="M193,439 L197,439" style="fill:none;stroke:rgb(150,160,200)" clip-path="url(#clip160)" />
<clipPath id="clip161"><path d="M208,404 L600,404 L600,428 L208,428 L208,404 Z" /></clipPath>
<path d="M261,426 L274,426" style="fill:none;stroke:rgb(128,128,128)" clip-path="url(#clip161)" />
<clipPath id="clip162"><path d="M208,404 L600,404 L600,428 L208,428 L208,404 Z" /></clipPath>
<path d="M274,426 C276,426 279,426 283,426" style="fill:none;stroke:rgb(128,128,128)" clip-path="url(#clip162)" />
<clipPath id="clip163"><path d="M208,404 L264,404 L264,428 L208,428 L208,404 Z" /></clipPath>
<path d="M210,426 L261,426" style="fill:none;stroke:rgb(128,128,128)" clip-path="url(#clip163)" />
<text x="215" y="420" style="font:12px Dialog">( 'a,b' )</text>
<clipPath id="clip164"><path d="M262,410 L275,410 L275,423 L262,423 L262,410 Z" /></clipPath>
<path d="M272.5,416 C272.5,413.5147095 270.4852905,411.5 268,411.5 C265.5147095,411.5 263.5,413.5147095 263.5,416 C263.5,418.4852905 265.5147095,420.5 268,420.5 C270.4852905,420.5 272.5,418.4852905 272.5,416 Z M272.5,416" style="fill:rgb(210,230,255);stroke:none" clip-path="url(#clip164)" />
<clipPath id="clip165"><path d="M262,410 L275,410 L275,423 L262,423 L262,410 Z" /></clipPath>
<path d="M272.5,416 C272.5,413.5147095 270.4852905,411.5 268,411.5 C265.5147095,411.5 263.5,413.5147095 263.5,416 C263.5,418.4852905 265.5147095,420.5 268,420.5 C270.4852905,420.5 272.5,418.4852905 272.5,416 Z M272.5,416" style="fill:none;stroke:rgb(180,200,240)" clip-path="url(#clip165)" />
<clipPath id="clip166"><path d="M262,410 L275,410 L275,423 L262,423 L262,410 Z" /></clipPath>
<path d="M266,416 L270,416" style="fill:none;stroke:rgb(150,160,200)" clip-path="url(#clip166)" />
<clipPath id="clip167"><path d="M281,404 L600,404 L600,428 L281,428 L281,404 Z" /></clipPath>
<path d="M283,426 L597,426" style="fill:none;stroke:rgb(128,128,128)" clip-path="url(#clip167)" />
<text x="288" y="420" style="font:12px Dialog">将所有数据以 Key-Value 形式返回，下标是 a，数值是 b</text>
<clipPath id="clip168"><path d="M208,427 L777,427 L777,451 L208,451 L208,427 Z" /></clipPath>
<path d="M304,449 L317,449" style="fill:none;stroke:rgb(128,128,128)" clip-path="url(#clip168)" />
<clipPath id="clip169"><path d="M208,427 L777,427 L777,451 L208,451 L208,427 Z" /></clipPath>
<path d="M317,449 C319,449 322,449 326,449" style="fill:none;stroke:rgb(128,128,128)" clip-path="url(#clip169)" />
<clipPath id="clip170"><path d="M208,427 L307,427 L307,451 L208,451 L208,427 Z" /></clipPath>
<path d="M210,449 L304,449" style="fill:none;stroke:rgb(128,128,128)" clip-path="url(#clip170)" />
<text x="215" y="443" style="font:12px Dialog">( 'a,b,c,d', 'c' )</text>
<clipPath id="clip171"><path d="M305,433 L318,433 L318,446 L305,446 L305,433 Z" /></clipPath>
<path d="M315.5,439 C315.5,436.5147095 313.4852905,434.5 311,434.5 C308.5147095,434.5 306.5,436.5147095 306.5,439 C306.5,441.4852905 308.5147095,443.5 311,443.5 C313.4852905,443.5 315.5,441.4852905 315.5,439 Z M315.5,439" style="fill:rgb(210,230,255);stroke:none" clip-path="url(#clip171)" />
<clipPath id="clip172"><path d="M305,433 L318,433 L318,446 L305,446 L305,433 Z" /></clipPath>
<path d="M315.5,439 C315.5,436.5147095 313.4852905,434.5 311,434.5 C308.5147095,434.5 306.5,436.5147095 306.5,439 C306.5,441.4852905 308.5147095,443.5 311,443.5 C313.4852905,443.5 315.5,441.4852905 315.5,439 Z M315.5,439" style="fill:none;stroke:rgb(180,200,240)" clip-path="url(#clip172)" />
<clipPath id="clip173"><path d="M305,433 L318,433 L318,446 L305,446 L305,433 Z" /></clipPath>
<path d="M309,439 L313,439" style="fill:none;stroke:rgb(150,160,200)" clip-path="url(#clip173)" />
<clipPath id="clip174"><path d="M324,427 L777,427 L777,451 L324,451 L324,427 Z" /></clipPath>
<path d="M326,449 L774,449" style="fill:none;stroke:rgb(128,128,128)" clip-path="url(#clip174)" />
<text x="331" y="443" style="font:12px Dialog">将所有数据以 Key-Value 形式返回，下标是 c，数值是 Key-Value形式的字段数据</text>
<clipPath id="clip175"><path d="M208,450 L373,450 L373,474 L208,474 L208,450 Z" /></clipPath>
<path d="M210,472 L370,472" style="fill:none;stroke:rgb(128,128,128)" clip-path="url(#clip175)" />
<text x="215" y="466" style="font:12px Dialog">之前必须调用 find 或 query</text>
<clipPath id="clip176"><path d="M152,482 L908,482 L908,522 L152,522 L152,482 Z" /></clipPath>
<path d="M216,520 L229,520" style="fill:none;stroke:rgb(128,128,128)" clip-path="url(#clip176)" />
<clipPath id="clip177"><path d="M152,482 L908,482 L908,522 L152,522 L152,482 Z" /></clipPath>
<path d="M229,520 C231,514.666687 234,512 238,512" style="fill:none;stroke:rgb(128,128,128)" clip-path="url(#clip177)" />
<clipPath id="clip178"><path d="M152,482 L219,482 L219,522 L152,522 L152,482 Z" /></clipPath>
<path d="M154,520 L216,520" style="fill:none;stroke:rgb(128,128,128)" clip-path="url(#clip178)" />
<text x="161" y="509" style="font:18px Dialog">query</text>
<clipPath id="clip179"><path d="M217,496 L230,496 L230,509 L217,509 L217,496 Z" /></clipPath>
<path d="M227.5,502 C227.5,499.5147095 225.4852753,497.5 223,497.5 C220.5147247,497.5 218.5,499.5147095 218.5,502 C218.5,504.4852905 220.5147247,506.5 223,506.5 C225.4852753,506.5 227.5,504.4852905 227.5,502 Z M227.5,502" style="fill:rgb(210,230,255);stroke:none" clip-path="url(#clip179)" />
<clipPath id="clip180"><path d="M217,496 L230,496 L230,509 L217,509 L217,496 Z" /></clipPath>
<path d="M227.5,502 C227.5,499.5147095 225.4852753,497.5 223,497.5 C220.5147247,497.5 218.5,499.5147095 218.5,502 C218.5,504.4852905 220.5147247,506.5 223,506.5 C225.4852753,506.5 227.5,504.4852905 227.5,502 Z M227.5,502" style="fill:none;stroke:rgb(180,200,240)" clip-path="url(#clip180)" />
<clipPath id="clip181"><path d="M217,496 L230,496 L230,509 L217,509 L217,496 Z" /></clipPath>
<path d="M221,502 L225,502" style="fill:none;stroke:rgb(150,160,200)" clip-path="url(#clip181)" />
<clipPath id="clip182"><path d="M236,490 L908,490 L908,514 L236,514 L236,490 Z" /></clipPath>
<path d="M481,512 L494,512" style="fill:none;stroke:rgb(128,128,128)" clip-path="url(#clip182)" />
<clipPath id="clip183"><path d="M236,490 L908,490 L908,514 L236,514 L236,490 Z" /></clipPath>
<path d="M494,512 C496,512 499,512 503,512" style="fill:none;stroke:rgb(128,128,128)" clip-path="url(#clip183)" />
<clipPath id="clip184"><path d="M236,490 L484,490 L484,514 L236,514 L236,490 Z" /></clipPath>
<path d="M238,512 L481,512" style="fill:none;stroke:rgb(128,128,128)" clip-path="url(#clip184)" />
<text x="243" y="506" style="font:12px Dialog">( 'select ... where a=? and b=? ...', [1,2] )</text>
<clipPath id="clip185"><path d="M482,496 L495,496 L495,509 L482,509 L482,496 Z" /></clipPath>
<path d="M492.5,502 C492.5,499.5147095 490.4852905,497.5 488,497.5 C485.5147095,497.5 483.5,499.5147095 483.5,502 C483.5,504.4852905 485.5147095,506.5 488,506.5 C490.4852905,506.5 492.5,504.4852905 492.5,502 Z M492.5,502" style="fill:rgb(210,230,255);stroke:none" clip-path="url(#clip185)" />
<clipPath id="clip186"><path d="M482,496 L495,496 L495,509 L482,509 L482,496 Z" /></clipPath>
<path d="M492.5,502 C492.5,499.5147095 490.4852905,497.5 488,497.5 C485.5147095,497.5 483.5,499.5147095 483.5,502 C483.5,504.4852905 485.5147095,506.5 488,506.5 C490.4852905,506.5 492.5,504.4852905 492.5,502 Z M492.5,502" style="fill:none;stroke:rgb(180,200,240)" clip-path="url(#clip186)" />
<clipPath id="clip187"><path d="M482,496 L495,496 L495,509 L482,509 L482,496 Z" /></clipPath>
<path d="M486,502 L490,502" style="fill:none;stroke:rgb(150,160,200)" clip-path="url(#clip187)" />
<clipPath id="clip188"><path d="M501,490 L908,490 L908,514 L501,514 L501,490 Z" /></clipPath>
<path d="M503,512 L905,512" style="fill:none;stroke:rgb(128,128,128)" clip-path="url(#clip188)" />
<text x="508" y="506" style="font:12px Dialog">使用完整的Sql语句进行查询，第二个参数用数组指出每个条件中变量的值</text>
<clipPath id="clip189"><path d="M152,530 L538,530 L538,572 L152,572 L152,530 Z" /></clipPath>
<path d="M215,569 L228,569" style="fill:none;stroke:rgb(128,128,128)" clip-path="url(#clip189)" />
<clipPath id="clip190"><path d="M152,530 L538,530 L538,572 L152,572 L152,530 Z" /></clipPath>
<path d="M228,569 C230,557.666687 233,552 237,552" style="fill:none;stroke:rgb(128,128,128)" clip-path="url(#clip190)" />
<clipPath id="clip191"><path d="M152,530 L538,530 L538,572 L152,572 L152,530 Z" /></clipPath>
<path d="M228,569 C230,569.666687 233,570 237,570" style="fill:none;stroke:rgb(128,128,128)" clip-path="url(#clip191)" />
<clipPath id="clip192"><path d="M152,531 L218,531 L218,571 L152,571 L152,531 Z" /></clipPath>
<path d="M154,569 L215,569" style="fill:none;stroke:rgb(128,128,128)" clip-path="url(#clip192)" />
<text x="161" y="557" style="font:18px Dialog">insert</text>
<clipPath id="clip193"><path d="M216,545 L229,545 L229,558 L216,558 L216,545 Z" /></clipPath>
<path d="M226.5,551 C226.5,548.5147095 224.4852753,546.5 222,546.5 C219.5147247,546.5 217.5,548.5147095 217.5,551 C217.5,553.4852905 219.5147247,555.5 222,555.5 C224.4852753,555.5 226.5,553.4852905 226.5,551 Z M226.5,551" style="fill:rgb(210,230,255);stroke:none" clip-path="url(#clip193)" />
<clipPath id="clip194"><path d="M216,545 L229,545 L229,558 L216,558 L216,545 Z" /></clipPath>
<path d="M226.5,551 C226.5,548.5147095 224.4852753,546.5 222,546.5 C219.5147247,546.5 217.5,548.5147095 217.5,551 C217.5,553.4852905 219.5147247,555.5 222,555.5 C224.4852753,555.5 226.5,553.4852905 226.5,551 Z M226.5,551" style="fill:none;stroke:rgb(180,200,240)" clip-path="url(#clip194)" />
<clipPath id="clip195"><path d="M216,545 L229,545 L229,558 L216,558 L216,545 Z" /></clipPath>
<path d="M220,551 L224,551" style="fill:none;stroke:rgb(150,160,200)" clip-path="url(#clip195)" />
<clipPath id="clip196"><path d="M235,530 L538,530 L538,554 L235,554 L235,530 Z" /></clipPath>
<path d="M358,552 L371,552" style="fill:none;stroke:rgb(128,128,128)" clip-path="url(#clip196)" />
<clipPath id="clip197"><path d="M235,530 L538,530 L538,554 L235,554 L235,530 Z" /></clipPath>
<path d="M371,552 C373,551.333313 376,551 380,551" style="fill:none;stroke:rgb(128,128,128)" clip-path="url(#clip197)" />
<clipPath id="clip198"><path d="M235,530 L361,530 L361,554 L235,554 L235,530 Z" /></clipPath>
<path d="M237,552 L358,552" style="fill:none;stroke:rgb(128,128,128)" clip-path="url(#clip198)" />
<text x="242" y="546" style="font:12px Dialog">( [ a =&gt; 1, b =&gt; 2 ] )</text>
<clipPath id="clip199"><path d="M359,536 L372,536 L372,549 L359,549 L359,536 Z" /></clipPath>
<path d="M369.5,542 C369.5,539.5147095 367.4852905,537.5 365,537.5 C362.5147095,537.5 360.5,539.5147095 360.5,542 C360.5,544.4852905 362.5147095,546.5 365,546.5 C367.4852905,546.5 369.5,544.4852905 369.5,542 Z M369.5,542" style="fill:rgb(210,230,255);stroke:none" clip-path="url(#clip199)" />
<clipPath id="clip200"><path d="M359,536 L372,536 L372,549 L359,549 L359,536 Z" /></clipPath>
<path d="M369.5,542 C369.5,539.5147095 367.4852905,537.5 365,537.5 C362.5147095,537.5 360.5,539.5147095 360.5,542 C360.5,544.4852905 362.5147095,546.5 365,546.5 C367.4852905,546.5 369.5,544.4852905 369.5,542 Z M369.5,542" style="fill:none;stroke:rgb(180,200,240)" clip-path="url(#clip200)" />
<clipPath id="clip201"><path d="M359,536 L372,536 L372,549 L359,549 L359,536 Z" /></clipPath>
<path d="M363,542 L367,542" style="fill:none;stroke:rgb(150,160,200)" clip-path="url(#clip201)" />
<clipPath id="clip202"><path d="M378,532 L538,532 L538,553 L378,553 L378,532 Z" /></clipPath>
<path d="M380,551 L535,551" style="fill:none;stroke:rgb(128,128,128)" clip-path="url(#clip202)" />
<text x="385" y="548" style="font:12px Dialog">将传入的数据添加到数据库</text>
<clipPath id="clip203"><path d="M235,553 L481,553 L481,572 L235,572 L235,553 Z" /></clipPath>
<path d="M237,570 L478,570" style="fill:none;stroke:rgb(128,128,128)" clip-path="url(#clip203)" />
<text x="242" y="566" style="font:10px Dialog">值使用冒号开头表示使用原始的值而不进行转换处理</text>
<clipPath id="clip204"><path d="M152,580 L695,580 L695,642 L152,642 L152,580 Z" /></clipPath>
<path d="M229,629 L242,629" style="fill:none;stroke:rgb(128,128,128)" clip-path="url(#clip204)" />
<clipPath id="clip205"><path d="M152,580 L695,580 L695,642 L152,642 L152,580 Z" /></clipPath>
<path d="M242,629 C244,617.666687 247,612 251,612" style="fill:none;stroke:rgb(128,128,128)" clip-path="url(#clip205)" />
<clipPath id="clip206"><path d="M152,580 L695,580 L695,642 L152,642 L152,580 Z" /></clipPath>
<path d="M242,629 C244,636.333313 247,640 251,640" style="fill:none;stroke:rgb(128,128,128)" clip-path="url(#clip206)" />
<clipPath id="clip207"><path d="M152,591 L232,591 L232,631 L152,631 L152,591 Z" /></clipPath>
<path d="M154,629 L229,629" style="fill:none;stroke:rgb(128,128,128)" clip-path="url(#clip207)" />
<text x="161" y="617" style="font:18px Dialog">replace</text>
<clipPath id="clip208"><path d="M230,605 L243,605 L243,618 L230,618 L230,605 Z" /></clipPath>
<path d="M240.5,611 C240.5,608.5147095 238.4852753,606.5 236,606.5 C233.5147247,606.5 231.5,608.5147095 231.5,611 C231.5,613.4852905 233.5147247,615.5 236,615.5 C238.4852753,615.5 240.5,613.4852905 240.5,611 Z M240.5,611" style="fill:rgb(210,230,255);stroke:none" clip-path="url(#clip208)" />
<clipPath id="clip209"><path d="M230,605 L243,605 L243,618 L230,618 L230,605 Z" /></clipPath>
<path d="M240.5,611 C240.5,608.5147095 238.4852753,606.5 236,606.5 C233.5147247,606.5 231.5,608.5147095 231.5,611 C231.5,613.4852905 233.5147247,615.5 236,615.5 C238.4852753,615.5 240.5,613.4852905 240.5,611 Z M240.5,611" style="fill:none;stroke:rgb(180,200,240)" clip-path="url(#clip209)" />
<clipPath id="clip210"><path d="M230,605 L243,605 L243,618 L230,618 L230,605 Z" /></clipPath>
<path d="M234,611 L238,611" style="fill:none;stroke:rgb(150,160,200)" clip-path="url(#clip210)" />
<clipPath id="clip211"><path d="M249,580 L695,580 L695,624 L249,624 L249,580 Z" /></clipPath>
<path d="M372,612 L385,612" style="fill:none;stroke:rgb(128,128,128)" clip-path="url(#clip211)" />
<clipPath id="clip212"><path d="M249,580 L695,580 L695,624 L249,624 L249,580 Z" /></clipPath>
<path d="M385,612 C387,603.333313 390,599 394,599" style="fill:none;stroke:rgb(128,128,128)" clip-path="url(#clip212)" />
<clipPath id="clip213"><path d="M249,580 L695,580 L695,624 L249,624 L249,580 Z" /></clipPath>
<path d="M385,612 C387,618.666687 390,622 394,622" style="fill:none;stroke:rgb(128,128,128)" clip-path="url(#clip213)" />
<clipPath id="clip214"><path d="M249,590 L375,590 L375,614 L249,614 L249,590 Z" /></clipPath>
<path d="M251,612 L372,612" style="fill:none;stroke:rgb(128,128,128)" clip-path="url(#clip214)" />
<text x="256" y="605" style="font:12px Dialog">( [ a =&gt; 1, b =&gt; 2 ] )</text>
<clipPath id="clip215"><path d="M373,596 L386,596 L386,609 L373,609 L373,596 Z" /></clipPath>
<path d="M383.5,602 C383.5,599.5147095 381.4852905,597.5 379,597.5 C376.5147095,597.5 374.5,599.5147095 374.5,602 C374.5,604.4852905 376.5147095,606.5 379,606.5 C381.4852905,606.5 383.5,604.4852905 383.5,602 Z M383.5,602" style="fill:rgb(210,230,255);stroke:none" clip-path="url(#clip215)" />
<clipPath id="clip216"><path d="M373,596 L386,596 L386,609 L373,609 L373,596 Z" /></clipPath>
<path d="M383.5,602 C383.5,599.5147095 381.4852905,597.5 379,597.5 C376.5147095,597.5 374.5,599.5147095 374.5,602 C374.5,604.4852905 376.5147095,606.5 379,606.5 C381.4852905,606.5 383.5,604.4852905 383.5,602 Z M383.5,602" style="fill:none;stroke:rgb(180,200,240)" clip-path="url(#clip216)" />
<clipPath id="clip217"><path d="M373,596 L386,596 L386,609 L373,609 L373,596 Z" /></clipPath>
<path d="M377,602 L381,602" style="fill:none;stroke:rgb(150,160,200)" clip-path="url(#clip217)" />
<clipPath id="clip218"><path d="M392,580 L552,580 L552,601 L392,601 L392,580 Z" /></clipPath>
<path d="M394,599 L549,599" style="fill:none;stroke:rgb(128,128,128)" clip-path="url(#clip218)" />
<text x="399" y="595" style="font:12px Dialog">将传入的数据替换到数据库</text>
<clipPath id="clip219"><path d="M392,600 L695,600 L695,624 L392,624 L392,600 Z" /></clipPath>
<path d="M515,622 L528,622" style="fill:none;stroke:rgb(128,128,128)" clip-path="url(#clip219)" />
<clipPath id="clip220"><path d="M392,600 L695,600 L695,624 L392,624 L392,600 Z" /></clipPath>
<path d="M528,622 C530,621.333313 533,621 537,621" style="fill:none;stroke:rgb(128,128,128)" clip-path="url(#clip220)" />
<clipPath id="clip221"><path d="M392,600 L518,600 L518,624 L392,624 L392,600 Z" /></clipPath>
<path d="M394,622 L515,622" style="fill:none;stroke:rgb(128,128,128)" clip-path="url(#clip221)" />
<text x="399" y="615" style="font:12px Dialog">( [ a =&gt; 1, b =&gt; 2 ] )</text>
<clipPath id="clip222"><path d="M516,606 L529,606 L529,619 L516,619 L516,606 Z" /></clipPath>
<path d="M526.5,612 C526.5,609.5147095 524.4852905,607.5 522,607.5 C519.5147095,607.5 517.5,609.5147095 517.5,612 C517.5,614.4852905 519.5147095,616.5 522,616.5 C524.4852905,616.5 526.5,614.4852905 526.5,612 Z M526.5,612" style="fill:rgb(210,230,255);stroke:none" clip-path="url(#clip222)" />
<clipPath id="clip223"><path d="M516,606 L529,606 L529,619 L516,619 L516,606 Z" /></clipPath>
<path d="M526.5,612 C526.5,609.5147095 524.4852905,607.5 522,607.5 C519.5147095,607.5 517.5,609.5147095 517.5,612 C517.5,614.4852905 519.5147095,616.5 522,616.5 C524.4852905,616.5 526.5,614.4852905 526.5,612 Z M526.5,612" style="fill:none;stroke:rgb(180,200,240)" clip-path="url(#clip223)" />
<clipPath id="clip224"><path d="M516,606 L529,606 L529,619 L516,619 L516,606 Z" /></clipPath>
<path d="M520,612 L524,612" style="fill:none;stroke:rgb(150,160,200)" clip-path="url(#clip224)" />
<clipPath id="clip225"><path d="M535,602 L695,602 L695,623 L535,623 L535,602 Z" /></clipPath>
<path d="M537,621 L692,621" style="fill:none;stroke:rgb(128,128,128)" clip-path="url(#clip225)" />
<text x="542" y="617" style="font:12px Dialog">将传入的数据替换到数据库</text>
<clipPath id="clip226"><path d="M249,623 L495,623 L495,642 L249,642 L249,623 Z" /></clipPath>
<path d="M251,640 L492,640" style="fill:none;stroke:rgb(128,128,128)" clip-path="url(#clip226)" />
<text x="256" y="636" style="font:10px Dialog">值使用冒号开头表示使用原始的值而不进行转换处理</text>
<clipPath id="clip227"><path d="M152,650 L679,650 L679,715 L152,715 L152,650 Z" /></clipPath>
<path d="M227,700 L240,700" style="fill:none;stroke:rgb(128,128,128)" clip-path="url(#clip227)" />
<clipPath id="clip228"><path d="M152,650 L679,650 L679,715 L152,715 L152,650 Z" /></clipPath>
<path d="M240,700 C242,681.333313 245,672 249,672" style="fill:none;stroke:rgb(128,128,128)" clip-path="url(#clip228)" />
<clipPath id="clip229"><path d="M152,650 L679,650 L679,715 L152,715 L152,650 Z" /></clipPath>
<path d="M240,700 C242,696.666687 245,695 249,695" style="fill:none;stroke:rgb(128,128,128)" clip-path="url(#clip229)" />
<clipPath id="clip230"><path d="M152,650 L679,650 L679,715 L152,715 L152,650 Z" /></clipPath>
<path d="M240,700 C242,708.666687 245,713 249,713" style="fill:none;stroke:rgb(128,128,128)" clip-path="url(#clip230)" />
<clipPath id="clip231"><path d="M152,662 L230,662 L230,702 L152,702 L152,662 Z" /></clipPath>
<path d="M154,700 L227,700" style="fill:none;stroke:rgb(128,128,128)" clip-path="url(#clip231)" />
<text x="161" y="688" style="font:18px Dialog">update</text>
<clipPath id="clip232"><path d="M228,676 L241,676 L241,689 L228,689 L228,676 Z" /></clipPath>
<path d="M238.5,682 C238.5,679.5147095 236.4852753,677.5 234,677.5 C231.5147247,677.5 229.5,679.5147095 229.5,682 C229.5,684.4852905 231.5147247,686.5 234,686.5 C236.4852753,686.5 238.5,684.4852905 238.5,682 Z M238.5,682" style="fill:rgb(210,230,255);stroke:none" clip-path="url(#clip232)" />
<clipPath id="clip233"><path d="M228,676 L241,676 L241,689 L228,689 L228,676 Z" /></clipPath>
<path d="M238.5,682 C238.5,679.5147095 236.4852753,677.5 234,677.5 C231.5147247,677.5 229.5,679.5147095 229.5,682 C229.5,684.4852905 231.5147247,686.5 234,686.5 C236.4852753,686.5 238.5,684.4852905 238.5,682 Z M238.5,682" style="fill:none;stroke:rgb(180,200,240)" clip-path="url(#clip233)" />
<clipPath id="clip234"><path d="M228,676 L241,676 L241,689 L228,689 L228,676 Z" /></clipPath>
<path d="M232,682 L236,682" style="fill:none;stroke:rgb(150,160,200)" clip-path="url(#clip234)" />
<clipPath id="clip235"><path d="M247,650 L679,650 L679,674 L247,674 L247,650 Z" /></clipPath>
<path d="M370,672 L383,672" style="fill:none;stroke:rgb(128,128,128)" clip-path="url(#clip235)" />
<clipPath id="clip236"><path d="M247,650 L679,650 L679,674 L247,674 L247,650 Z" /></clipPath>
<path d="M383,672 C385,672 388,672 392,672" style="fill:none;stroke:rgb(128,128,128)" clip-path="url(#clip236)" />
<clipPath id="clip237"><path d="M247,650 L373,650 L373,674 L247,674 L247,650 Z" /></clipPath>
<path d="M249,672 L370,672" style="fill:none;stroke:rgb(128,128,128)" clip-path="url(#clip237)" />
<text x="254" y="665" style="font:12px Dialog">( [ a =&gt; 1, b =&gt; 2 ] )</text>
<clipPath id="clip238"><path d="M371,656 L384,656 L384,669 L371,669 L371,656 Z" /></clipPath>
<path d="M381.5,662 C381.5,659.5147095 379.4852905,657.5 377,657.5 C374.5147095,657.5 372.5,659.5147095 372.5,662 C372.5,664.4852905 374.5147095,666.5 377,666.5 C379.4852905,666.5 381.5,664.4852905 381.5,662 Z M381.5,662" style="fill:rgb(210,230,255);stroke:none" clip-path="url(#clip238)" />
<clipPath id="clip239"><path d="M371,656 L384,656 L384,669 L371,669 L371,656 Z" /></clipPath>
<path d="M381.5,662 C381.5,659.5147095 379.4852905,657.5 377,657.5 C374.5147095,657.5 372.5,659.5147095 372.5,662 C372.5,664.4852905 374.5147095,666.5 377,666.5 C379.4852905,666.5 381.5,664.4852905 381.5,662 Z M381.5,662" style="fill:none;stroke:rgb(180,200,240)" clip-path="url(#clip239)" />
<clipPath id="clip240"><path d="M371,656 L384,656 L384,669 L371,669 L371,656 Z" /></clipPath>
<path d="M375,662 L379,662" style="fill:none;stroke:rgb(150,160,200)" clip-path="url(#clip240)" />
<clipPath id="clip241"><path d="M390,650 L679,650 L679,674 L390,674 L390,650 Z" /></clipPath>
<path d="M392,672 L676,672" style="fill:none;stroke:rgb(128,128,128)" clip-path="url(#clip241)" />
<text x="397" y="665" style="font:12px Dialog">使用之前 find 中的条件 将传入的数据更新到数据库</text>
<clipPath id="clip242"><path d="M247,673 L360,673 L360,697 L247,697 L247,673 Z" /></clipPath>
<path d="M249,695 L357,695" style="fill:none;stroke:rgb(128,128,128)" clip-path="url(#clip242)" />
<text x="254" y="688" style="font:12px Dialog">之前必须调用 find</text>
<clipPath id="clip243"><path d="M247,696 L493,696 L493,715 L247,715 L247,696 Z" /></clipPath>
<path d="M249,713 L490,713" style="fill:none;stroke:rgb(128,128,128)" clip-path="url(#clip243)" />
<text x="254" y="709" style="font:10px Dialog">值使用冒号开头表示使用原始的值而不进行转换处理</text>
<clipPath id="clip244"><path d="M152,723 L533,723 L533,770 L152,770 L152,723 Z" /></clipPath>
<path d="M220,764 L233,764" style="fill:none;stroke:rgb(128,128,128)" clip-path="url(#clip244)" />
<clipPath id="clip245"><path d="M152,723 L533,723 L533,770 L152,770 L152,723 Z" /></clipPath>
<path d="M233,764 C235,751.333313 238,745 242,745" style="fill:none;stroke:rgb(128,128,128)" clip-path="url(#clip245)" />
<clipPath id="clip246"><path d="M152,723 L533,723 L533,770 L152,770 L152,723 Z" /></clipPath>
<path d="M233,764 C235,766.666687 238,768 242,768" style="fill:none;stroke:rgb(128,128,128)" clip-path="url(#clip246)" />
<clipPath id="clip247"><path d="M152,726 L223,726 L223,766 L152,766 L152,726 Z" /></clipPath>
<path d="M154,764 L220,764" style="fill:none;stroke:rgb(128,128,128)" clip-path="url(#clip247)" />
<text x="161" y="752" style="font:18px Dialog">delete</text>
<clipPath id="clip248"><path d="M221,740 L234,740 L234,753 L221,753 L221,740 Z" /></clipPath>
<path d="M231.5,746 C231.5,743.5147095 229.4852753,741.5 227,741.5 C224.5147247,741.5 222.5,743.5147095 222.5,746 C222.5,748.4852905 224.5147247,750.5 227,750.5 C229.4852753,750.5 231.5,748.4852905 231.5,746 Z M231.5,746" style="fill:rgb(210,230,255);stroke:none" clip-path="url(#clip248)" />
<clipPath id="clip249"><path d="M221,740 L234,740 L234,753 L221,753 L221,740 Z" /></clipPath>
<path d="M231.5,746 C231.5,743.5147095 229.4852753,741.5 227,741.5 C224.5147247,741.5 222.5,743.5147095 222.5,746 C222.5,748.4852905 224.5147247,750.5 227,750.5 C229.4852753,750.5 231.5,748.4852905 231.5,746 Z M231.5,746" style="fill:none;stroke:rgb(180,200,240)" clip-path="url(#clip249)" />
<clipPath id="clip250"><path d="M221,740 L234,740 L234,753 L221,753 L221,740 Z" /></clipPath>
<path d="M225,746 L229,746" style="fill:none;stroke:rgb(150,160,200)" clip-path="url(#clip250)" />
<clipPath id="clip251"><path d="M240,723 L533,723 L533,747 L240,747 L240,723 Z" /></clipPath>
<path d="M260,745 L273,745" style="fill:none;stroke:rgb(128,128,128)" clip-path="url(#clip251)" />
<clipPath id="clip252"><path d="M240,723 L533,723 L533,747 L240,747 L240,723 Z" /></clipPath>
<path d="M273,745 C275,745 278,745 282,745" style="fill:none;stroke:rgb(128,128,128)" clip-path="url(#clip252)" />
<clipPath id="clip253"><path d="M240,723 L263,723 L263,747 L240,747 L240,723 Z" /></clipPath>
<path d="M242,745 L260,745" style="fill:none;stroke:rgb(128,128,128)" clip-path="url(#clip253)" />
<text x="247" y="738" style="font:12px Dialog">()</text>
<clipPath id="clip254"><path d="M261,729 L274,729 L274,742 L261,742 L261,729 Z" /></clipPath>
<path d="M271.5,735 C271.5,732.5147095 269.4852905,730.5 267,730.5 C264.5147095,730.5 262.5,732.5147095 262.5,735 C262.5,737.4852905 264.5147095,739.5 267,739.5 C269.4852905,739.5 271.5,737.4852905 271.5,735 Z M271.5,735" style="fill:rgb(210,230,255);stroke:none" clip-path="url(#clip254)" />
<clipPath id="clip255"><path d="M261,729 L274,729 L274,742 L261,742 L261,729 Z" /></clipPath>
<path d="M271.5,735 C271.5,732.5147095 269.4852905,730.5 267,730.5 C264.5147095,730.5 262.5,732.5147095 262.5,735 C262.5,737.4852905 264.5147095,739.5 267,739.5 C269.4852905,739.5 271.5,737.4852905 271.5,735 Z M271.5,735" style="fill:none;stroke:rgb(180,200,240)" clip-path="url(#clip255)" />
<clipPath id="clip256"><path d="M261,729 L274,729 L274,742 L261,742 L261,729 Z" /></clipPath>
<path d="M265,735 L269,735" style="fill:none;stroke:rgb(150,160,200)" clip-path="url(#clip256)" />
<clipPath id="clip257"><path d="M280,723 L533,723 L533,747 L280,747 L280,723 Z" /></clipPath>
<path d="M282,745 L530,745" style="fill:none;stroke:rgb(128,128,128)" clip-path="url(#clip257)" />
<text x="287" y="738" style="font:12px Dialog">使用之前 find 中的条件 删除数据库中的数据</text>
<clipPath id="clip258"><path d="M240,746 L353,746 L353,770 L240,770 L240,746 Z" /></clipPath>
<path d="M242,768 L350,768" style="fill:none;stroke:rgb(128,128,128)" clip-path="url(#clip258)" />
<text x="247" y="761" style="font:12px Dialog">之前必须调用 find</text>
<clipPath id="clip259"><path d="M152,778 L339,778 L339,818 L152,818 L152,778 Z" /></clipPath>
<path d="M215,816 L228,816" style="fill:none;stroke:rgb(128,128,128)" clip-path="url(#clip259)" />
<clipPath id="clip260"><path d="M152,778 L339,778 L339,818 L152,818 L152,778 Z" /></clipPath>
<path d="M228,816 C230,810.666626 233,808 237,808" style="fill:none;stroke:rgb(128,128,128)" clip-path="url(#clip260)" />
<clipPath id="clip261"><path d="M152,778 L218,778 L218,818 L152,818 L152,778 Z" /></clipPath>
<path d="M154,816 L215,816" style="fill:none;stroke:rgb(128,128,128)" clip-path="url(#clip261)" />
<text x="161" y="804" style="font:18px Dialog">begin</text>
<clipPath id="clip262"><path d="M216,792 L229,792 L229,805 L216,805 L216,792 Z" /></clipPath>
<path d="M226.5,798 C226.5,795.5147095 224.4852753,793.5 222,793.5 C219.5147247,793.5 217.5,795.5147095 217.5,798 C217.5,800.4852905 219.5147247,802.5 222,802.5 C224.4852753,802.5 226.5,800.4852905 226.5,798 Z M226.5,798" style="fill:rgb(210,230,255);stroke:none" clip-path="url(#clip262)" />
<clipPath id="clip263"><path d="M216,792 L229,792 L229,805 L216,805 L216,792 Z" /></clipPath>
<path d="M226.5,798 C226.5,795.5147095 224.4852753,793.5 222,793.5 C219.5147247,793.5 217.5,795.5147095 217.5,798 C217.5,800.4852905 219.5147247,802.5 222,802.5 C224.4852753,802.5 226.5,800.4852905 226.5,798 Z M226.5,798" style="fill:none;stroke:rgb(180,200,240)" clip-path="url(#clip263)" />
<clipPath id="clip264"><path d="M216,792 L229,792 L229,805 L216,805 L216,792 Z" /></clipPath>
<path d="M220,798 L224,798" style="fill:none;stroke:rgb(150,160,200)" clip-path="url(#clip264)" />
<clipPath id="clip265"><path d="M235,786 L339,786 L339,810 L235,810 L235,786 Z" /></clipPath>
<path d="M255,808 L268,808" style="fill:none;stroke:rgb(128,128,128)" clip-path="url(#clip265)" />
<clipPath id="clip266"><path d="M235,786 L339,786 L339,810 L235,810 L235,786 Z" /></clipPath>
<path d="M268,808 C270,807.333374 273,807 277,807" style="fill:none;stroke:rgb(128,128,128)" clip-path="url(#clip266)" />
<clipPath id="clip267"><path d="M235,786 L258,786 L258,810 L235,810 L235,786 Z" /></clipPath>
<path d="M237,808 L255,808" style="fill:none;stroke:rgb(128,128,128)" clip-path="url(#clip267)" />
<text x="242" y="801" style="font:12px Dialog">()</text>
<clipPath id="clip268"><path d="M256,792 L269,792 L269,805 L256,805 L256,792 Z" /></clipPath>
<path d="M266.5,798 C266.5,795.5147095 264.4852905,793.5 262,793.5 C259.5147095,793.5 257.5,795.5147095 257.5,798 C257.5,800.4852905 259.5147095,802.5 262,802.5 C264.4852905,802.5 266.5,800.4852905 266.5,798 Z M266.5,798" style="fill:rgb(210,230,255);stroke:none" clip-path="url(#clip268)" />
<clipPath id="clip269"><path d="M256,792 L269,792 L269,805 L256,805 L256,792 Z" /></clipPath>
<path d="M266.5,798 C266.5,795.5147095 264.4852905,793.5 262,793.5 C259.5147095,793.5 257.5,795.5147095 257.5,798 C257.5,800.4852905 259.5147095,802.5 262,802.5 C264.4852905,802.5 266.5,800.4852905 266.5,798 Z M266.5,798" style="fill:none;stroke:rgb(180,200,240)" clip-path="url(#clip269)" />
<clipPath id="clip270"><path d="M256,792 L269,792 L269,805 L256,805 L256,792 Z" /></clipPath>
<path d="M260,798 L264,798" style="fill:none;stroke:rgb(150,160,200)" clip-path="url(#clip270)" />
<clipPath id="clip271"><path d="M275,788 L339,788 L339,809 L275,809 L275,788 Z" /></clipPath>
<path d="M277,807 L336,807" style="fill:none;stroke:rgb(128,128,128)" clip-path="url(#clip271)" />
<text x="282" y="803" style="font:12px Dialog">开始事务</text>
<clipPath id="clip272"><path d="M152,826 L359,826 L359,873 L152,873 L152,826 Z" /></clipPath>
<path d="M200,867 L213,867" style="fill:none;stroke:rgb(128,128,128)" clip-path="url(#clip272)" />
<clipPath id="clip273"><path d="M152,826 L359,826 L359,873 L152,873 L152,826 Z" /></clipPath>
<path d="M213,867 C215,854.333374 218,848 222,848" style="fill:none;stroke:rgb(128,128,128)" clip-path="url(#clip273)" />
<clipPath id="clip274"><path d="M152,826 L359,826 L359,873 L152,873 L152,826 Z" /></clipPath>
<path d="M213,867 C215,869.666626 218,871 222,871" style="fill:none;stroke:rgb(128,128,128)" clip-path="url(#clip274)" />
<clipPath id="clip275"><path d="M152,829 L203,829 L203,869 L152,869 L152,829 Z" /></clipPath>
<path d="M154,867 L200,867" style="fill:none;stroke:rgb(128,128,128)" clip-path="url(#clip275)" />
<text x="161" y="855" style="font:18px Dialog">end</text>
<clipPath id="clip276"><path d="M201,843 L214,843 L214,856 L201,856 L201,843 Z" /></clipPath>
<path d="M211.5,849 C211.5,846.5147095 209.4852753,844.5 207,844.5 C204.5147247,844.5 202.5,846.5147095 202.5,849 C202.5,851.4852905 204.5147247,853.5 207,853.5 C209.4852753,853.5 211.5,851.4852905 211.5,849 Z M211.5,849" style="fill:rgb(210,230,255);stroke:none" clip-path="url(#clip276)" />
<clipPath id="clip277"><path d="M201,843 L214,843 L214,856 L201,856 L201,843 Z" /></clipPath>
<path d="M211.5,849 C211.5,846.5147095 209.4852753,844.5 207,844.5 C204.5147247,844.5 202.5,846.5147095 202.5,849 C202.5,851.4852905 204.5147247,853.5 207,853.5 C209.4852753,853.5 211.5,851.4852905 211.5,849 Z M211.5,849" style="fill:none;stroke:rgb(180,200,240)" clip-path="url(#clip277)" />
<clipPath id="clip278"><path d="M201,843 L214,843 L214,856 L201,856 L201,843 Z" /></clipPath>
<path d="M205,849 L209,849" style="fill:none;stroke:rgb(150,160,200)" clip-path="url(#clip278)" />
<clipPath id="clip279"><path d="M220,826 L354,826 L354,850 L220,850 L220,826 Z" /></clipPath>
<path d="M270,848 L283,848" style="fill:none;stroke:rgb(128,128,128)" clip-path="url(#clip279)" />
<clipPath id="clip280"><path d="M220,826 L354,826 L354,850 L220,850 L220,826 Z" /></clipPath>
<path d="M283,848 C285,847.333374 288,847 292,847" style="fill:none;stroke:rgb(128,128,128)" clip-path="url(#clip280)" />
<clipPath id="clip281"><path d="M220,826 L273,826 L273,850 L220,850 L220,826 Z" /></clipPath>
<path d="M222,848 L270,848" style="fill:none;stroke:rgb(128,128,128)" clip-path="url(#clip281)" />
<text x="227" y="841" style="font:12px Dialog">( true )</text>
<clipPath id="clip282"><path d="M271,832 L284,832 L284,845 L271,845 L271,832 Z" /></clipPath>
<path d="M281.5,838 C281.5,835.5147095 279.4852905,833.5 277,833.5 C274.5147095,833.5 272.5,835.5147095 272.5,838 C272.5,840.4852905 274.5147095,842.5 277,842.5 C279.4852905,842.5 281.5,840.4852905 281.5,838 Z M281.5,838" style="fill:rgb(210,230,255);stroke:none" clip-path="url(#clip282)" />
<clipPath id="clip283"><path d="M271,832 L284,832 L284,845 L271,845 L271,832 Z" /></clipPath>
<path d="M281.5,838 C281.5,835.5147095 279.4852905,833.5 277,833.5 C274.5147095,833.5 272.5,835.5147095 272.5,838 C272.5,840.4852905 274.5147095,842.5 277,842.5 C279.4852905,842.5 281.5,840.4852905 281.5,838 Z M281.5,838" style="fill:none;stroke:rgb(180,200,240)" clip-path="url(#clip283)" />
<clipPath id="clip284"><path d="M271,832 L284,832 L284,845 L271,845 L271,832 Z" /></clipPath>
<path d="M275,838 L279,838" style="fill:none;stroke:rgb(150,160,200)" clip-path="url(#clip284)" />
<clipPath id="clip285"><path d="M290,828 L354,828 L354,849 L290,849 L290,828 Z" /></clipPath>
<path d="M292,847 L351,847" style="fill:none;stroke:rgb(128,128,128)" clip-path="url(#clip285)" />
<text x="297" y="843" style="font:12px Dialog">提交事务</text>
<clipPath id="clip286"><path d="M220,849 L359,849 L359,873 L220,873 L220,849 Z" /></clipPath>
<path d="M275,871 L288,871" style="fill:none;stroke:rgb(128,128,128)" clip-path="url(#clip286)" />
<clipPath id="clip287"><path d="M220,849 L359,849 L359,873 L220,873 L220,849 Z" /></clipPath>
<path d="M288,871 C290,870.333374 293,870 297,870" style="fill:none;stroke:rgb(128,128,128)" clip-path="url(#clip287)" />
<clipPath id="clip288"><path d="M220,849 L278,849 L278,873 L220,873 L220,849 Z" /></clipPath>
<path d="M222,871 L275,871" style="fill:none;stroke:rgb(128,128,128)" clip-path="url(#clip288)" />
<text x="227" y="864" style="font:12px Dialog">( false )</text>
<clipPath id="clip289"><path d="M276,855 L289,855 L289,868 L276,868 L276,855 Z" /></clipPath>
<path d="M286.5,861 C286.5,858.5147095 284.4852905,856.5 282,856.5 C279.5147095,856.5 277.5,858.5147095 277.5,861 C277.5,863.4852905 279.5147095,865.5 282,865.5 C284.4852905,865.5 286.5,863.4852905 286.5,861 Z M286.5,861" style="fill:rgb(210,230,255);stroke:none" clip-path="url(#clip289)" />
<clipPath id="clip290"><path d="M276,855 L289,855 L289,868 L276,868 L276,855 Z" /></clipPath>
<path d="M286.5,861 C286.5,858.5147095 284.4852905,856.5 282,856.5 C279.5147095,856.5 277.5,858.5147095 277.5,861 C277.5,863.4852905 279.5147095,865.5 282,865.5 C284.4852905,865.5 286.5,863.4852905 286.5,861 Z M286.5,861" style="fill:none;stroke:rgb(180,200,240)" clip-path="url(#clip290)" />
<clipPath id="clip291"><path d="M276,855 L289,855 L289,868 L276,868 L276,855 Z" /></clipPath>
<path d="M280,861 L284,861" style="fill:none;stroke:rgb(150,160,200)" clip-path="url(#clip291)" />
<clipPath id="clip292"><path d="M295,851 L359,851 L359,872 L295,872 L295,851 Z" /></clipPath>
<path d="M297,870 L356,870" style="fill:none;stroke:rgb(128,128,128)" clip-path="url(#clip292)" />
<text x="302" y="866" style="font:12px Dialog">回滚事务</text>
<clipPath id="clip293"><path d="M152,881 L527,881 L527,921 L152,921 L152,881 Z" /></clipPath>
<path d="M294,919 L307,919" style="fill:none;stroke:rgb(128,128,128)" clip-path="url(#clip293)" />
<clipPath id="clip294"><path d="M152,881 L527,881 L527,921 L152,921 L152,881 Z" /></clipPath>
<path d="M307,919 C309,913.666626 312,911 316,911" style="fill:none;stroke:rgb(128,128,128)" clip-path="url(#clip294)" />
<clipPath id="clip295"><path d="M152,881 L297,881 L297,921 L152,921 L152,881 Z" /></clipPath>
<path d="M154,919 L294,919" style="fill:none;stroke:rgb(128,128,128)" clip-path="url(#clip295)" />
<text x="161" y="907" style="font:18px Dialog">getLastInsertID</text>
<clipPath id="clip296"><path d="M295,895 L308,895 L308,908 L295,908 L295,895 Z" /></clipPath>
<path d="M305.5,901 C305.5,898.5147095 303.4852905,896.5 301,896.5 C298.5147095,896.5 296.5,898.5147095 296.5,901 C296.5,903.4852905 298.5147095,905.5 301,905.5 C303.4852905,905.5 305.5,903.4852905 305.5,901 Z M305.5,901" style="fill:rgb(210,230,255);stroke:none" clip-path="url(#clip296)" />
<clipPath id="clip297"><path d="M295,895 L308,895 L308,908 L295,908 L295,895 Z" /></clipPath>
<path d="M305.5,901 C305.5,898.5147095 303.4852905,896.5 301,896.5 C298.5147095,896.5 296.5,898.5147095 296.5,901 C296.5,903.4852905 298.5147095,905.5 301,905.5 C303.4852905,905.5 305.5,903.4852905 305.5,901 Z M305.5,901" style="fill:none;stroke:rgb(180,200,240)" clip-path="url(#clip297)" />
<clipPath id="clip298"><path d="M295,895 L308,895 L308,908 L295,908 L295,895 Z" /></clipPath>
<path d="M299,901 L303,901" style="fill:none;stroke:rgb(150,160,200)" clip-path="url(#clip298)" />
<clipPath id="clip299"><path d="M314,889 L527,889 L527,913 L314,913 L314,889 Z" /></clipPath>
<path d="M334,911 L347,911" style="fill:none;stroke:rgb(128,128,128)" clip-path="url(#clip299)" />
<clipPath id="clip300"><path d="M314,889 L527,889 L527,913 L314,913 L314,889 Z" /></clipPath>
<path d="M347,911 C349,911 352,911 356,911" style="fill:none;stroke:rgb(128,128,128)" clip-path="url(#clip300)" />
<clipPath id="clip301"><path d="M314,889 L337,889 L337,913 L314,913 L314,889 Z" /></clipPath>
<path d="M316,911 L334,911" style="fill:none;stroke:rgb(128,128,128)" clip-path="url(#clip301)" />
<text x="321" y="904" style="font:12px Dialog">()</text>
<clipPath id="clip302"><path d="M335,895 L348,895 L348,908 L335,908 L335,895 Z" /></clipPath>
<path d="M345.5,901 C345.5,898.5147095 343.4852905,896.5 341,896.5 C338.5147095,896.5 336.5,898.5147095 336.5,901 C336.5,903.4852905 338.5147095,905.5 341,905.5 C343.4852905,905.5 345.5,903.4852905 345.5,901 Z M345.5,901" style="fill:rgb(210,230,255);stroke:none" clip-path="url(#clip302)" />
<clipPath id="clip303"><path d="M335,895 L348,895 L348,908 L335,908 L335,895 Z" /></clipPath>
<path d="M345.5,901 C345.5,898.5147095 343.4852905,896.5 341,896.5 C338.5147095,896.5 336.5,898.5147095 336.5,901 C336.5,903.4852905 338.5147095,905.5 341,905.5 C343.4852905,905.5 345.5,903.4852905 345.5,901 Z M345.5,901" style="fill:none;stroke:rgb(180,200,240)" clip-path="url(#clip303)" />
<clipPath id="clip304"><path d="M335,895 L348,895 L348,908 L335,908 L335,895 Z" /></clipPath>
<path d="M339,901 L343,901" style="fill:none;stroke:rgb(150,160,200)" clip-path="url(#clip304)" />
<clipPath id="clip305"><path d="M354,889 L527,889 L527,913 L354,913 L354,889 Z" /></clipPath>
<path d="M356,911 L524,911" style="fill:none;stroke:rgb(128,128,128)" clip-path="url(#clip305)" />
<text x="361" y="904" style="font:12px Dialog">获得最后插入数据库的自增ID</text>
<clipPath id="clip306"><path d="M152,929 L468,929 L468,969 L152,969 L152,929 Z" /></clipPath>
<path d="M257,967 L270,967" style="fill:none;stroke:rgb(128,128,128)" clip-path="url(#clip306)" />
<clipPath id="clip307"><path d="M152,929 L468,929 L468,969 L152,969 L152,929 Z" /></clipPath>
<path d="M270,967 C272,961.666626 275,959 279,959" style="fill:none;stroke:rgb(128,128,128)" clip-path="url(#clip307)" />
<clipPath id="clip308"><path d="M152,929 L260,929 L260,969 L152,969 L152,929 Z" /></clipPath>
<path d="M154,967 L257,967" style="fill:none;stroke:rgb(128,128,128)" clip-path="url(#clip308)" />
<text x="161" y="955" style="font:18px Dialog">getLastSql</text>
<clipPath id="clip309"><path d="M258,943 L271,943 L271,956 L258,956 L258,943 Z" /></clipPath>
<path d="M268.5,949 C268.5,946.5147095 266.4852905,944.5 264,944.5 C261.5147095,944.5 259.5,946.5147095 259.5,949 C259.5,951.4852905 261.5147095,953.5 264,953.5 C266.4852905,953.5 268.5,951.4852905 268.5,949 Z M268.5,949" style="fill:rgb(210,230,255);stroke:none" clip-path="url(#clip309)" />
<clipPath id="clip310"><path d="M258,943 L271,943 L271,956 L258,956 L258,943 Z" /></clipPath>
<path d="M268.5,949 C268.5,946.5147095 266.4852905,944.5 264,944.5 C261.5147095,944.5 259.5,946.5147095 259.5,949 C259.5,951.4852905 261.5147095,953.5 264,953.5 C266.4852905,953.5 268.5,951.4852905 268.5,949 Z M268.5,949" style="fill:none;stroke:rgb(180,200,240)" clip-path="url(#clip310)" />
<clipPath id="clip311"><path d="M258,943 L271,943 L271,956 L258,956 L258,943 Z" /></clipPath>
<path d="M262,949 L266,949" style="fill:none;stroke:rgb(150,160,200)" clip-path="url(#clip311)" />
<clipPath id="clip312"><path d="M277,937 L468,937 L468,961 L277,961 L277,937 Z" /></clipPath>
<path d="M297,959 L310,959" style="fill:none;stroke:rgb(128,128,128)" clip-path="url(#clip312)" />
<clipPath id="clip313"><path d="M277,937 L468,937 L468,961 L277,961 L277,937 Z" /></clipPath>
<path d="M310,959 C312,959 315,959 319,959" style="fill:none;stroke:rgb(128,128,128)" clip-path="url(#clip313)" />
<clipPath id="clip314"><path d="M277,937 L300,937 L300,961 L277,961 L277,937 Z" /></clipPath>
<path d="M279,959 L297,959" style="fill:none;stroke:rgb(128,128,128)" clip-path="url(#clip314)" />
<text x="284" y="952" style="font:12px Dialog">()</text>
<clipPath id="clip315"><path d="M298,943 L311,943 L311,956 L298,956 L298,943 Z" /></clipPath>
<path d="M308.5,949 C308.5,946.5147095 306.4852905,944.5 304,944.5 C301.5147095,944.5 299.5,946.5147095 299.5,949 C299.5,951.4852905 301.5147095,953.5 304,953.5 C306.4852905,953.5 308.5,951.4852905 308.5,949 Z M308.5,949" style="fill:rgb(210,230,255);stroke:none" clip-path="url(#clip315)" />
<clipPath id="clip316"><path d="M298,943 L311,943 L311,956 L298,956 L298,943 Z" /></clipPath>
<path d="M308.5,949 C308.5,946.5147095 306.4852905,944.5 304,944.5 C301.5147095,944.5 299.5,946.5147095 299.5,949 C299.5,951.4852905 301.5147095,953.5 304,953.5 C306.4852905,953.5 308.5,951.4852905 308.5,949 Z M308.5,949" style="fill:none;stroke:rgb(180,200,240)" clip-path="url(#clip316)" />
<clipPath id="clip317"><path d="M298,943 L311,943 L311,956 L298,956 L298,943 Z" /></clipPath>
<path d="M302,949 L306,949" style="fill:none;stroke:rgb(150,160,200)" clip-path="url(#clip317)" />
<clipPath id="clip318"><path d="M317,937 L468,937 L468,961 L317,961 L317,937 Z" /></clipPath>
<path d="M319,959 L465,959" style="fill:none;stroke:rgb(128,128,128)" clip-path="url(#clip318)" />
<text x="324" y="952" style="font:12px Dialog">获取最后执行的 Sql 语句</text>
<clipPath id="clip319"><path d="M152,977 L481,977 L481,1017 L152,1017 L152,977 Z" /></clipPath>
<path d="M270,1015 L283,1015" style="fill:none;stroke:rgb(128,128,128)" clip-path="url(#clip319)" />
<clipPath id="clip320"><path d="M152,977 L481,977 L481,1017 L152,1017 L152,977 Z" /></clipPath>
<path d="M283,1015 C285,1009.666626 288,1007 292,1007" style="fill:none;stroke:rgb(128,128,128)" clip-path="url(#clip320)" />
<clipPath id="clip321"><path d="M152,977 L273,977 L273,1017 L152,1017 L152,977 Z" /></clipPath>
<path d="M154,1015 L270,1015" style="fill:none;stroke:rgb(128,128,128)" clip-path="url(#clip321)" />
<text x="161" y="1003" style="font:18px Dialog">getLastError</text>
<clipPath id="clip322"><path d="M271,991 L284,991 L284,1004 L271,1004 L271,991 Z" /></clipPath>
<path d="M281.5,997 C281.5,994.5147095 279.4852905,992.5 277,992.5 C274.5147095,992.5 272.5,994.5147095 272.5,997 C272.5,999.4852905 274.5147095,1001.5 277,1001.5 C279.4852905,1001.5 281.5,999.4852905 281.5,997 Z M281.5,997" style="fill:rgb(210,230,255);stroke:none" clip-path="url(#clip322)" />
<clipPath id="clip323"><path d="M271,991 L284,991 L284,1004 L271,1004 L271,991 Z" /></clipPath>
<path d="M281.5,997 C281.5,994.5147095 279.4852905,992.5 277,992.5 C274.5147095,992.5 272.5,994.5147095 272.5,997 C272.5,999.4852905 274.5147095,1001.5 277,1001.5 C279.4852905,1001.5 281.5,999.4852905 281.5,997 Z M281.5,997" style="fill:none;stroke:rgb(180,200,240)" clip-path="url(#clip323)" />
<clipPath id="clip324"><path d="M271,991 L284,991 L284,1004 L271,1004 L271,991 Z" /></clipPath>
<path d="M275,997 L279,997" style="fill:none;stroke:rgb(150,160,200)" clip-path="url(#clip324)" />
<clipPath id="clip325"><path d="M290,985 L481,985 L481,1009 L290,1009 L290,985 Z" /></clipPath>
<path d="M310,1007 L323,1007" style="fill:none;stroke:rgb(128,128,128)" clip-path="url(#clip325)" />
<clipPath id="clip326"><path d="M290,985 L481,985 L481,1009 L290,1009 L290,985 Z" /></clipPath>
<path d="M323,1007 C325,1007 328,1007 332,1007" style="fill:none;stroke:rgb(128,128,128)" clip-path="url(#clip326)" />
<clipPath id="clip327"><path d="M290,985 L313,985 L313,1009 L290,1009 L290,985 Z" /></clipPath>
<path d="M292,1007 L310,1007" style="fill:none;stroke:rgb(128,128,128)" clip-path="url(#clip327)" />
<text x="297" y="1000" style="font:12px Dialog">()</text>
<clipPath id="clip328"><path d="M311,991 L324,991 L324,1004 L311,1004 L311,991 Z" /></clipPath>
<path d="M321.5,997 C321.5,994.5147095 319.4852905,992.5 317,992.5 C314.5147095,992.5 312.5,994.5147095 312.5,997 C312.5,999.4852905 314.5147095,1001.5 317,1001.5 C319.4852905,1001.5 321.5,999.4852905 321.5,997 Z M321.5,997" style="fill:rgb(210,230,255);stroke:none" clip-path="url(#clip328)" />
<clipPath id="clip329"><path d="M311,991 L324,991 L324,1004 L311,1004 L311,991 Z" /></clipPath>
<path d="M321.5,997 C321.5,994.5147095 319.4852905,992.5 317,992.5 C314.5147095,992.5 312.5,994.5147095 312.5,997 C312.5,999.4852905 314.5147095,1001.5 317,1001.5 C319.4852905,1001.5 321.5,999.4852905 321.5,997 Z M321.5,997" style="fill:none;stroke:rgb(180,200,240)" clip-path="url(#clip329)" />
<clipPath id="clip330"><path d="M311,991 L324,991 L324,1004 L311,1004 L311,991 Z" /></clipPath>
<path d="M315,997 L319,997" style="fill:none;stroke:rgb(150,160,200)" clip-path="url(#clip330)" />
<clipPath id="clip331"><path d="M330,985 L481,985 L481,1009 L330,1009 L330,985 Z" /></clipPath>
<path d="M332,1007 L478,1007" style="fill:none;stroke:rgb(128,128,128)" clip-path="url(#clip331)" />
<text x="337" y="1000" style="font:12px Dialog">获取最后发生的 Sql 错误</text>
<clipPath id="clip332"><path d="M152,1025 L549,1025 L549,1065 L152,1065 L152,1025 Z" /></clipPath>
<path d="M314,1063 L327,1063" style="fill:none;stroke:rgb(128,128,128)" clip-path="url(#clip332)" />
<clipPath id="clip333"><path d="M152,1025 L549,1025 L549,1065 L152,1065 L152,1025 Z" /></clipPath>
<path d="M327,1063 C329,1057.666748 332,1055 336,1055" style="fill:none;stroke:rgb(128,128,128)" clip-path="url(#clip333)" />
<clipPath id="clip334"><path d="M152,1025 L317,1025 L317,1065 L152,1065 L152,1025 Z" /></clipPath>
<path d="M154,1063 L314,1063" style="fill:none;stroke:rgb(128,128,128)" clip-path="url(#clip334)" />
<text x="161" y="1051" style="font:18px Dialog">getLastErrorCode</text>
<clipPath id="clip335"><path d="M315,1039 L328,1039 L328,1052 L315,1052 L315,1039 Z" /></clipPath>
<path d="M325.5,1045 C325.5,1042.5146484 323.4852905,1040.5 321,1040.5 C318.5147095,1040.5 316.5,1042.5146484 316.5,1045 C316.5,1047.4853516 318.5147095,1049.5 321,1049.5 C323.4852905,1049.5 325.5,1047.4853516 325.5,1045 Z M325.5,1045" style="fill:rgb(210,230,255);stroke:none" clip-path="url(#clip335)" />
<clipPath id="clip336"><path d="M315,1039 L328,1039 L328,1052 L315,1052 L315,1039 Z" /></clipPath>
<path d="M325.5,1045 C325.5,1042.5146484 323.4852905,1040.5 321,1040.5 C318.5147095,1040.5 316.5,1042.5146484 316.5,1045 C316.5,1047.4853516 318.5147095,1049.5 321,1049.5 C323.4852905,1049.5 325.5,1047.4853516 325.5,1045 Z M325.5,1045" style="fill:none;stroke:rgb(180,200,240)" clip-path="url(#clip336)" />
<clipPath id="clip337"><path d="M315,1039 L328,1039 L328,1052 L315,1052 L315,1039 Z" /></clipPath>
<path d="M319,1045 L323,1045" style="fill:none;stroke:rgb(150,160,200)" clip-path="url(#clip337)" />
<clipPath id="clip338"><path d="M334,1033 L549,1033 L549,1057 L334,1057 L334,1033 Z" /></clipPath>
<path d="M354,1055 L367,1055" style="fill:none;stroke:rgb(128,128,128)" clip-path="url(#clip338)" />
<clipPath id="clip339"><path d="M334,1033 L549,1033 L549,1057 L334,1057 L334,1033 Z" /></clipPath>
<path d="M367,1055 C369,1055 372,1055 376,1055" style="fill:none;stroke:rgb(128,128,128)" clip-path="url(#clip339)" />
<clipPath id="clip340"><path d="M334,1033 L357,1033 L357,1057 L334,1057 L334,1033 Z" /></clipPath>
<path d="M336,1055 L354,1055" style="fill:none;stroke:rgb(128,128,128)" clip-path="url(#clip340)" />
<text x="341" y="1048" style="font:12px Dialog">()</text>
<clipPath id="clip341"><path d="M355,1039 L368,1039 L368,1052 L355,1052 L355,1039 Z" /></clipPath>
<path d="M365.5,1045 C365.5,1042.5146484 363.4852905,1040.5 361,1040.5 C358.5147095,1040.5 356.5,1042.5146484 356.5,1045 C356.5,1047.4853516 358.5147095,1049.5 361,1049.5 C363.4852905,1049.5 365.5,1047.4853516 365.5,1045 Z M365.5,1045" style="fill:rgb(210,230,255);stroke:none" clip-path="url(#clip341)" />
<clipPath id="clip342"><path d="M355,1039 L368,1039 L368,1052 L355,1052 L355,1039 Z" /></clipPath>
<path d="M365.5,1045 C365.5,1042.5146484 363.4852905,1040.5 361,1040.5 C358.5147095,1040.5 356.5,1042.5146484 356.5,1045 C356.5,1047.4853516 358.5147095,1049.5 361,1049.5 C363.4852905,1049.5 365.5,1047.4853516 365.5,1045 Z M365.5,1045" style="fill:none;stroke:rgb(180,200,240)" clip-path="url(#clip342)" />
<clipPath id="clip343"><path d="M355,1039 L368,1039 L368,1052 L355,1052 L355,1039 Z" /></clipPath>
<path d="M359,1045 L363,1045" style="fill:none;stroke:rgb(150,160,200)" clip-path="url(#clip343)" />
<clipPath id="clip344"><path d="M374,1033 L549,1033 L549,1057 L374,1057 L374,1033 Z" /></clipPath>
<path d="M376,1055 L546,1055" style="fill:none;stroke:rgb(128,128,128)" clip-path="url(#clip344)" />
<text x="381" y="1048" style="font:12px Dialog">获取最后发生的 Sql 错误代码</text>
</svg>
